<svg xmlns="http://www.w3.org/2000/svg" viewBox="0 0 365.91 256"><title>Asset 11</title><g id="Layer_2" data-name="Layer 2"><g id="fountain"><polygon points="166.89 134 152.89 229 213.89 229 201.89 134 166.89 134" style="fill:#6b6b6b"/><path d="M27.89,30s21,100,154,101S338.55,36.22,338.55,36.22Z" style="fill:#6b6b6b"/><path d="M28.89,0s-65,29,0,34c0,0,215,11.8,295.84,2.9,3.34-.37,80.16,5.1,15.16-32.9C339.89,4,70.89,3,28.89,0Z" style="fill:#939393"/><path d="M143.89,127s-18,15,39,15,40-15,40-15Z" style="fill:#565656"/><path d="M182.89,216c-80,1-68,40-68,40h136S262.89,217,182.89,216Z" style="fill:#595959"/><rect x="194.89" y="158" width="6" height="49" rx="3" ry="3" transform="matrix(1, -0.09, 0.09, 1, -15.15, 17.94)" style="fill:#595959"/><rect x="168.89" y="158" width="6" height="49" rx="3" ry="3" transform="translate(327.22 379.29) rotate(-175)" style="fill:#595959"/><rect x="181.89" y="158" width="6" height="49" rx="3" ry="3" style="fill:#595959"/></g></g></svg>