<svg xmlns="http://www.w3.org/2000/svg" viewBox="0 0 503.98 323.64"><title>Asset 16</title><g id="Layer_2" data-name="Layer 2"><g id="Layer_6" data-name="Layer 6"><rect x="47.97" width="411.07" height="313.92" rx="28.56" ry="28.56" style="fill:#a3a3a3"/><rect x="52.22" y="5.46" width="402.57" height="302.99" rx="27.77" ry="27.77"/><rect x="71.04" y="26.11" width="366.14" height="267.17" style="fill:#fcfbfd"/><circle cx="254.42" cy="17" r="4.25" style="fill:#4c4c4c"/><rect y="303.6" width="503.98" height="20.04" rx="6.83" ry="6.83" style="fill:#4c4c4c"/><path d="M217.94,303.6s41.77,10.32,78.9,0Z" style="fill:#3a3a3a"/><g id="svgg"><path id="path0" d="M72,27.32" style="fill:none"/><path id="path1" d="M423,34.91c-.33.79-.1.84,4.08.79l4,0v-.92l-4,0c-3.4,0-4,0-4.08.23m0,2.74c-.33.79-.1.84,4.08.79l4,0v-.92l-4,0c-3.4,0-4,0-4.08.23m0,2.74c-.33.79-.1.84,4.08.79l4,0v-.92l-4,0c-3.4,0-4,0-4.08.23M287.9,69.58c0,1.22.08,2,.2,2s.2-.69.2-1.69V68.21l.71,1.6a4.76,4.76,0,0,0,.93,1.6,4.77,4.77,0,0,0,.93-1.6l.71-1.6V69.9c0,1,.09,1.69.21,1.69s.2-.79.2-2c0-2.52-.23-2.6-1.19-.41-.85,1.95-.89,1.94-1.74,0-.94-2.16-1.17-2.08-1.17.43m-6-.72a6.2,6.2,0,0,0-1.23.88,11.3,11.3,0,0,0,2.61,1.68,8,8,0,0,0,.09-1.65c0-1.89.07-1.84-1.46-.91m24.91.91a8,8,0,0,0,.09,1.65,14.89,14.89,0,0,0,2.65-1.65,14.89,14.89,0,0,0-2.65-1.65,8,8,0,0,0-.09,1.65m61,0a3.73,3.73,0,0,0,.12,1.41,9.56,9.56,0,0,0,0-2.85,4.77,4.77,0,0,0-.1,1.43m-74.2-1.1c-.24.09-.44.25-.44.36s.26.24.52,0a1,1,0,0,1,1.31.25c.27.41-.11.67-1,.68q-1.06,0-1.06.86c0,.51.64.86,1.23.68.4-.13.39-.14-.15-.24-1.17-.21-.81-1.1.45-1.1.55,0,.64.06.6.41-.06.71,0,1.05.25,1.05s.13-2.49-.15-2.74a1.93,1.93,0,0,0-1.59-.18m66.61.38c-.3.81-.26,1.12.06.44l.26-.55.22.46c.22.44.22.44.11-.09-.17-.83-.41-.92-.65-.26m-63.48,1.17c.61,1.59.57,2.11-.17,2.11-.15,0-.27.08-.27.18,0,.28.3.22.76-.14s1.88-3.77,1.53-3.66a3,3,0,0,0-.61,1.2c-.48,1.41-.57,1.41-1.09-.06a3.19,3.19,0,0,0-.59-1.19,4.08,4.08,0,0,0,.43,1.55m66.2-.65a.94.94,0,0,0,.14,1.31c.29.21.31.2.1,0a1,1,0,0,1,.06-1.36c.17-.16.22-.29.1-.29s-.29.16-.41.35m1-.16a.71.71,0,0,1,.36.5c0,.2.05.23.12.08s-.27-.77-.59-.77c-.12,0-.07.09.12.19m1.55,0a1.15,1.15,0,0,0,.76,1.79c.15,0,.06-.11-.21-.23a.92.92,0,0,1-.29-1.48c.18-.16.24-.3.15-.3a.8.8,0,0,0-.41.22m1,0a.7.7,0,0,1,.36.5c0,.2.05.23.12.08s-.27-.77-.6-.77c-.12,0-.07.09.12.19m2.15.21-.41.41.6.64c.33.35.45.43.27.18-.55-.77-.58-.92-.22-1.29.19-.2.3-.36.25-.36a2,2,0,0,0-.5.41m-8.84.73a.41.41,0,0,1-.24.37c-.18.06-.19.14,0,.3s.25.1.35-.27a.91.91,0,0,0,0-.59c-.06-.05-.11,0-.11.19m1.76,0a.41.41,0,0,1-.24.37c-.18.06-.19.14,0,.3s.25.1.35-.27a.91.91,0,0,0,0-.59c-.06-.05-.11,0-.11.19m-102,11.74v.81l-.5-.24c-1.43-.7-2.56,1.26-1.36,2.38.55.52.86.56,1.39.18s.63-.35.73,0a6.54,6.54,0,0,0,.11-1.83c0-1.33-.05-2.15-.17-2.15s-.2.37-.2.81M304,83.39c0,1.57,0,1.88.11,1.08.25-2.38,2-2.49,2-.13,0,.65.09,1.15.2,1.15s.26-1.84,0-2.43-.81-.71-1.49-.38a4.33,4.33,0,0,1-.59.25,3.09,3.09,0,0,1-.14-.87c0-.48-.08.12-.08,1.33m-156.93.12,0,2.07.11-1.74c.06-1,.16-1.66.23-1.55s.41.82.75,1.61c.76,1.73.89,1.71,1.76-.25l.68-1.54.06,1.69c.08,2.4.43,2.14.43-.32s-.27-2.65-1.23-.42c-.86,2-.88,2-1.71.11-1-2.25-1.17-2.19-1.13.34m51.35-1.86c0,.1.35.18.78.18H200v1.83c0,1.1.08,1.83.2,1.83s.2-.73.2-1.83V81.84H201c.38,0,.68-.08.68-.18s-.68-.18-1.66-.18-1.66.08-1.66.18m49.84.4c.1.33.37,1.24.6,2,.58,2,.57,2,1.66-1.56.17-.56.39-.2.85,1.42.54,1.89.72,1.88,1.27,0,.67-2.3.7-2.46.52-2.46a4.91,4.91,0,0,0-.62,1.66c-.54,2-.55,2-1.36-.88-.33-1.19-.65-1-1.16.88s-.57,1.92-1.1-.05a4.14,4.14,0,0,0-.63-1.55c-.17-.05-.18.09,0,.54m51.57-.4c0,.1.31.18.68.18h.68v1.83c0,1.1.08,1.83.2,1.83s.2-.73.2-1.83V81.84h.68c.38,0,.68-.08.68-.18s-.65-.18-1.56-.18-1.56.08-1.56.18m53.34,1.83c0,1.22.08,2,.2,2s.2-.41.2-.91v-.92h1c.54,0,1-.08,1-.18s-.44-.18-1-.18h-1V81.84h1.07c.59,0,1.07-.08,1.07-.18s-.55-.18-1.27-.18h-1.27v2M133,81.87a.72.72,0,0,0-.23.38c0,.09.14,0,.31-.13a.75.75,0,0,1,1-.13c.38.23.2.8-.34,1.05l-.47.22.45.06c.62.09.93.59.6,1a1.06,1.06,0,0,1-1.46,0c-.41-.32-.41-.32,0,.09a1.3,1.3,0,0,0,.82.41c.9,0,1.43-1.07.72-1.44-.27-.15-.29-.23-.1-.41a.63.63,0,0,0-.13-1.07c-.5-.25-.86-.24-1.15,0m3,0c-.87.6-.37,2.85.64,2.85.65,0,1.08-.75,1-1.7-.13-1.26-.79-1.72-1.62-1.15m98.49.11c-.19.2-.26.37-.15.37a.42.42,0,0,0,.32-.27c.22-.53,1.3-.2,1.3.4a4.18,4.18,0,0,1-.88,1.16c-1.09,1.15-1.09,1.1.15,1.07.84,0,.9,0,.29-.1-.9-.09-.91-.19,0-1.15,1.13-1.27.19-2.67-1-1.46m50.94-.15a.71.71,0,0,0-.23.38c0,.09.14,0,.31-.13a.75.75,0,0,1,1-.13c.38.23.2.8-.34,1.05l-.47.22.45.06c.62.09.93.59.6,1a1.06,1.06,0,0,1-1.46,0c-.41-.32-.41-.32,0,.09a1.3,1.3,0,0,0,.82.41c.9,0,1.43-1.07.72-1.44-.27-.15-.29-.23-.1-.41a.63.63,0,0,0-.13-1.07c-.5-.25-.86-.24-1.15,0m-148.26.37c.57.77.18,2.34-.58,2.34-.49,0-.93-.86-.81-1.58.2-1.16.83-1.51,1.39-.76m199.26.56c-.79,1.22-.79,1.23.14,1.23.64,0,.78.07.85.41s.08.41.11,0a.55.55,0,0,1,.37-.48c.33-.08.33-.08,0-.11s-.34-.2-.34-1c0-1.3-.31-1.31-1.13,0m.87,1a1.7,1.7,0,0,1-.7,0l-.61-.06.64-.92.64-.91.06.89a2.89,2.89,0,0,1,0,1M152.94,82.57a1.54,1.54,0,0,0-.33,2.54,1.16,1.16,0,0,0,1.74-.07,1.46,1.46,0,0,0-1.41-2.48m3.67.11c-.38.25-.48.26-.63,0s-.17.32-.17,1.26.08,1.51.19,1.51.2-.51.2-1.15c0-1.24.2-1.59.91-1.59s.85.51.85,1.73c0,.64.08,1,.22,1s.13-2.5-.15-2.74a1.21,1.21,0,0,0-1.42-.07m49.67-.11c-1.52.57-.82,3.15.78,2.85.68-.13,1.07-.4.86-.6s-.24,0-.37.09a1.16,1.16,0,0,1-1.51-.14c-.37-.65-.24-.74,1-.74h1.19l-.13-.5a1.31,1.31,0,0,0-1.8-1m48.26,0a1.57,1.57,0,0,0,0,2.7c.59.31,1.52.11,1.68-.36.07-.22,0-.23-.17,0a1.43,1.43,0,0,1-1.74-.12c-.37-.64-.24-.74,1-.74,1,0,1.17,0,1.17-.35a1.4,1.4,0,0,0-1.89-1.08m102.86,0c-.29.14-.54.18-.54.09a.19.19,0,0,0-.2-.17c-.11,0-.2.61-.2,1.46s.08,1.46.2,1.46.2-.52.2-1.2c0-1.17,0-1.21.59-1.41.32-.11.59-.27.59-.35s0-.18-.64.12M202.15,83.81c0,1.47.41,2,1.27,1.53.33-.18.31-.2-.16-.2-.68,0-.81-.23-1-1.56l-.12-1.1,0,1.33m2.07-.1a4.8,4.8,0,0,0,.06,1.51c.1.23.16-.21.17-1.14,0-1.79-.1-2-.23-.37m103.21,0c0,1.63.64,2.17,1.72,1.47.39-.26.43-.26.43,0s.09.28.2.28.2-.61.2-1.46-.08-1.46-.2-1.46-.2.44-.2,1c0,2.12-1.62,2.37-1.72.26-.07-1.57-.43-1.62-.43-.06m51.39.29c0,.85.08,1.46.2,1.46s.2-.61.2-1.46-.08-1.46-.2-1.46-.2.61-.2,1.46m-204.59-.93c.54,1,.13,2-.77,2-.71,0-1-.32-1-1.19,0-1.14,1.24-1.73,1.75-.84m53.34,0c.36.63.23.74-.77.74s-1.13-.12-.77-.74a1,1,0,0,1,1.55,0M255.82,83c.57.53.28.88-.74.88-.72,0-1-.07-1-.26,0-.67,1.2-1.1,1.72-.62m3.52,0a1.68,1.68,0,0,1,.23,1c0,1.14-1.24,1.73-1.75.84-.69-1.21.56-2.7,1.52-1.81m-111.47,8.1c0,.6,0,.83.08.5a4.63,4.63,0,0,0,0-1.1c0-.28-.08,0-.08.6M145.31,91c0,.35,0,.5.09.32a1.41,1.41,0,0,0,0-.64c0-.18-.09,0-.09.32m7.23,0c0,.35,0,.5.09.32a1.41,1.41,0,0,0,0-.64c0-.18-.09,0-.09.32m-8.88,1a2.25,2.25,0,0,0,.78,0c.19,0,0-.08-.44-.08s-.58,0-.34.08m40.25,26.41a.64.64,0,0,0-.12,1c.17.16.14.28-.1.51-.85.8.32,1.75,1.45,1.18.38-.19.52-1,.21-1.17-.09-.05-.13.09-.08.32.16.8-1.1,1.16-1.58.46-.27-.4.15-.88.77-.88.26,0,.46-.09.46-.2s-.11-.16-.24-.12c-.7.24-1.3-.79-.61-1s1,.07,1.07.59,0,.45.11.07c.16-.78-.57-1.18-1.36-.75m50.59.14c-.58.6.19,2.17.79,1.61.07-.06,0-.12-.09-.12a1.15,1.15,0,0,1-.83-.82,1.12,1.12,0,0,1,.88-.82c.83,0,1.21,1.86.49,2.46-.37.32-1.18.25-1.18-.1,0-.09-.1-.17-.23-.17s-.07.16.13.37c.8.82,1.86.15,1.86-1.19s-1.06-2-1.83-1.22m53.1.05c-.78.81-.28,2.72.72,2.72s1.33-2,.57-2.74c-.5-.47-.82-.46-1.29,0m-154.21-.07.92.07-.79,1.36c-.43.75-.71,1.36-.62,1.36a14.24,14.24,0,0,0,1.62-2.84,3,3,0,0,0-1-.06l-1,0,.91.07m151.87.15c-.36.27-.36.28.06.09s.44-.19.44,1.18c0,.8.08,1.38.2,1.38s.2-.61.2-1.46c0-1.56-.14-1.74-.89-1.18m3.51,0c.63.59.28,2.46-.46,2.46-.56,0-.83-.45-.83-1.37,0-1.24.59-1.74,1.29-1.08m47.29,0c-.36.27-.36.28.06.09s.44-.19.44,1.18c0,.8.08,1.38.2,1.38s.2-.61.2-1.46c0-1.56-.14-1.74-.89-1.18m2.17,0c-.21.15-.28.27-.16.27a.46.46,0,0,0,.34-.18c.31-.46.48-.07.54,1.24l.07,1.42,0-1.51c0-1.6-.07-1.77-.83-1.23M236.91,155.16c-1.1.84-.42,3,.84,2.72a.92.92,0,0,0,.11-1.79l-.47-.15.46.34a.8.8,0,0,1,0,1.39c-.73.43-1.41-.64-1.17-1.82a.87.87,0,0,1,1.41-.54c.22.18.39.24.39.13,0-.54-1-.7-1.55-.26M338.46,155c-.44.24-.44.76,0,1.15s1,.41,1,.11c0-.11-.09-.14-.19-.08a.62.62,0,0,1-.68-1c.48-.37,1.33.06,1.17.6-.1.32-.08.35.08.14.54-.73-.5-1.39-1.4-.9m-205.62.27c-.36.27-.36.28.06.08s.44-.19.44,1.18c0,.8.08,1.38.2,1.38s.2-.61.2-1.46c0-1.56-.14-1.74-.89-1.18m2.56.67c-.86,1.2-.86,1.24.09,1.24.68,0,.78.06.8.41s.05.31.12.14a1.39,1.39,0,0,1,.41-.5c.28-.21.28-.23,0-.23s-.33-.18-.33-1c0-1.25-.2-1.26-1.07,0m48.25-.67c-.36.27-.36.28.06.08s.44-.19.44,1.18c0,.8.08,1.38.2,1.38s.2-.61.2-1.46c0-1.56-.14-1.74-.89-1.18m2.19-.16c-.18.17-.17,1.34,0,1.34a1.18,1.18,0,0,0,.44-.2c.25-.17.24-.18,0-.09s-.34,0-.34-.43.06-.54.83-.6l.83-.07-.8,0a2.27,2.27,0,0,0-.93.09m48.61.16c-.36.27-.36.28.06.08s.44-.19.44,1.18c0,.8.08,1.38.2,1.38s.2-.61.2-1.46c0-1.56-.14-1.74-.89-1.18m50.8,0c-.36.27-.36.28.06.08s.44-.19.44,1.18c0,.8.08,1.38.2,1.38s.2-.61.2-1.46c0-1.56-.14-1.74-.89-1.18m2.7-.15.93.07-.68,1.27a9.26,9.26,0,0,0-.67,1.41,18.36,18.36,0,0,0,1.54-2.74c0-.08-.45-.12-1-.1l-1,0,.93.07m48.11.15c-.36.27-.36.28.06.08s.44-.19.44,1.18c0,.8.08,1.38.2,1.38s.2-.61.2-1.46c0-1.56-.14-1.74-.89-1.18M136.21,157a1.65,1.65,0,0,1-.69,0l-.6-.06.63-.91.63-.91.06.88a2.91,2.91,0,0,1,0,1m50.82-.7c.49.45.56.93.21,1.27a.89.89,0,0,1-1.22-.07c-.17-.16-.31-.22-.31-.13,0,.29.46.6.9.6a1,1,0,0,0,.46-1.8l-.49-.28.44.41m151.08.5c-.52.58.44,1.36,1.32,1.07.56-.18.85-.88.5-1.21-.11-.1-.15,0-.09.37s0,.56-.33.66c-.75.22-1.24-.06-1.15-.65s.09-.63-.25-.24m-205.25,35c-.19.2-.26.37-.15.37a.42.42,0,0,0,.32-.28c.22-.53,1.3-.2,1.3.4a4.16,4.16,0,0,1-.88,1.16c-1.09,1.14-1.09,1.1.15,1.07.84,0,.9,0,.29-.1-.9-.09-.91-.19,0-1.15,1.13-1.27.19-2.67-1-1.46m50.8,0c-.19.2-.26.37-.15.37a.42.42,0,0,0,.32-.28c.22-.53,1.3-.2,1.3.4a4.17,4.17,0,0,1-.88,1.16c-1.09,1.14-1.09,1.1.15,1.07.84,0,.9,0,.29-.1-.9-.09-.91-.19,0-1.15,1.13-1.27.19-2.67-1-1.46m3-.17c-.19.1-.34.28-.34.39s.17.06.38-.12c1.18-1,1.54.39.4,1.59-1,1.05-1,1.06.24,1,1,0,1,0,.2-.1-1-.08-1-.19-.32-.8,1.39-1.22.95-2.8-.56-2m47.82.17c-.19.2-.26.37-.15.37a.42.42,0,0,0,.32-.28c.22-.53,1.3-.2,1.3.4a4.16,4.16,0,0,1-.88,1.16c-1.09,1.14-1.09,1.1.15,1.07.84,0,.9,0,.29-.1-.9-.09-.91-.19,0-1.15,1.13-1.27.19-2.67-1-1.46m2.95-.08c-.45.42-.38.49.15.17.72-.44,1.21-.16,1.12.64,0,.24,0,.24.17,0,.35-.49-.08-1.1-.77-1.1a1.15,1.15,0,0,0-.67.29m47.86.08c-.19.2-.26.37-.15.37a.42.42,0,0,0,.32-.28c.22-.53,1.3-.2,1.3.4a4.17,4.17,0,0,1-.88,1.16c-1.09,1.14-1.09,1.1.15,1.07.84,0,.9,0,.29-.1-.9-.09-.91-.19,0-1.15,1.13-1.27.19-2.67-1-1.46m50.8,0c-.19.2-.26.37-.15.37a.42.42,0,0,0,.32-.28c.22-.53,1.3-.2,1.3.4a4.16,4.16,0,0,1-.88,1.16c-1.09,1.14-1.09,1.1.15,1.07.84,0,.9,0,.29-.1-.9-.09-.91-.19,0-1.15,1.13-1.27.19-2.67-1-1.46M135.57,192c-.37.41-.37.41,0,.09.61-.48.65-.43.72,1.1l.07,1.42,0-1.51c0-1.64-.15-1.88-.86-1.1m152.82.55c-.86,1.2-.86,1.24.09,1.24.68,0,.78.06.8.41s.05.31.12.14a1.4,1.4,0,0,1,.41-.5c.28-.21.28-.23,0-.23s-.33-.18-.33-1c0-1.25-.2-1.26-1.07,0m50.43-.55c-.18.63-.15,1.05.08,1.05s.15-.09.08-.19c-.32-.49.1-1.06.84-1.14l.73-.07-.81,0c-.69,0-.82,0-.93.38m-49.63,1.54a1.65,1.65,0,0,1-.69,0l-.6-.06.63-.91.63-.91.06.88a2.92,2.92,0,0,1,0,1m50.82-.77a.88.88,0,0,1,.2,1.34.82.82,0,0,1-1.17-.08c-.22-.19-.36-.22-.36-.09,0,.4.92.66,1.48.42a.9.9,0,0,0-.11-1.63l-.49-.27.44.32m-101.22.71c.16.79-.76,1.16-1.4.56-.17-.16-.31-.2-.31-.1,0,.31.78.61,1.28.49s.93-.69.58-1.13-.26-.3-.16.18m-106,34.87c-.19.2-.26.37-.15.37a.42.42,0,0,0,.32-.27c.22-.53,1.3-.2,1.3.4a4.18,4.18,0,0,1-.88,1.16c-1.09,1.15-1.09,1.1.15,1.07.84,0,.9,0,.29-.1-.9-.09-.91-.19,0-1.15,1.13-1.27.19-2.67-1-1.46m2.95-.08c-.36.34-.37.44-.09.81s.19.23.1,0c-.25-.73.89-1.11,1.32-.45.25.38-.34.94-.8.78-.14,0-.25,0-.25.09,0,.3.7.2,1-.16.82-.85-.46-1.84-1.32-1m47.86.08c-.19.2-.26.37-.15.37a.42.42,0,0,0,.32-.27c.22-.53,1.3-.2,1.3.4a4.19,4.19,0,0,1-.88,1.16c-1.09,1.15-1.09,1.1.15,1.07.84,0,.9,0,.29-.1-.9-.09-.91-.19,0-1.15,1.13-1.27.19-2.67-1-1.46m2.94-.12a1,1,0,0,0,.56,1.77c.11,0,0-.13-.23-.28a.82.82,0,0,1,.36-1.54c.52,0,.8.47.81,1.36,0,1.28-.65,1.76-1.48,1.07-.3-.25-.37-.26-.29,0a1,1,0,0,0,1.55.25c1.24-1.16.07-3.49-1.28-2.56m48,0a.72.72,0,0,0-.23.38c0,.09.14,0,.31-.13a.75.75,0,0,1,1-.13c.38.23.2.8-.34,1.05l-.47.22.45.06c.62.09.93.59.6,1a1.06,1.06,0,0,1-1.46,0c-.41-.32-.41-.32,0,.09a1.3,1.3,0,0,0,.82.41c.9,0,1.43-1.07.72-1.44-.27-.15-.29-.23-.1-.41a.63.63,0,0,0-.13-1.07c-.5-.25-.86-.24-1.15,0m3,0c-.87.6-.37,2.85.64,2.85.65,0,1.09-.75,1-1.7-.13-1.26-.79-1.72-1.62-1.15m47.83,0a.71.71,0,0,0-.23.38c0,.09.14,0,.31-.13a.75.75,0,0,1,1-.13c.38.23.2.8-.34,1.05l-.47.22.45.06c.62.09.93.59.6,1a1.06,1.06,0,0,1-1.46,0c-.41-.32-.41-.32,0,.09a1.3,1.3,0,0,0,.82.41c.9,0,1.43-1.07.72-1.44-.27-.15-.29-.23-.1-.41a.63.63,0,0,0-.13-1.07c-.5-.25-.86-.24-1.15,0m-46.65.37c.57.77.18,2.34-.58,2.34-.49,0-.93-.86-.81-1.58.2-1.16.83-1.51,1.39-.76m49.43-.12c-.36.27-.36.28.06.08s.44-.19.44,1.18c0,.8.08,1.38.2,1.38s.2-.61.2-1.46c0-1.56-.14-1.74-.89-1.18m-152.62,1.44c-.46,1.12,1.25,1.64,2,.6.16-.23.12-.38-.16-.63s-.35-.31-.16,0a.66.66,0,0,1-.63,1c-.57,0-1-.43-.84-.91s0-.5-.18-.1m71.3,6.69c0,.45,0,.64.08.41a2.45,2.45,0,0,0,0-.82c0-.23-.08,0-.08.41m50.8,0c0,.45,0,.64.08.41a2.45,2.45,0,0,0,0-.82c0-.23-.08,0-.08.41" style="fill:#2a253a"/><path id="path2" d="M86.22,35.09c-.58.93-.83,1.5-.68,1.55a7.39,7.39,0,0,1,.77.44c.3.19.6.29.67.23a6.69,6.69,0,0,0,.28-2.86l-.12-.82-.91,1.46M85.8,38c-.11.4.23.44.74.09.34-.23.33-.25-.14-.34s-.53,0-.6.25" style="fill:#31144e"/><path id="path3" d="M146.9,83.48c0,1.16,0,1.63.07,1.05a18.82,18.82,0,0,0,0-2.1c0-.58-.07-.11-.07,1.05m55.09,0c0,.55,0,.78.08.5a3.79,3.79,0,0,0,0-1c0-.28-.08-.05-.08.5m2.55.55c0,.86,0,1.21.07.78a9.83,9.83,0,0,0,0-1.55c0-.43-.07-.08-.07.78m30.56.5a2.29,2.29,0,0,0,.78,0c.19,0,0-.08-.44-.08s-.58,0-.34.08M133,118.37a4.62,4.62,0,0,0,1.07,0c.3,0,.05-.08-.54-.08s-.83,0-.54.08M136,155c-.07.11,0,.15.17.09s.31.1.37.92l.07,1,0-1c0-1-.29-1.44-.59-1m49.84,0c-.05.08.23.11.62.08,1.08-.1,1.21-.19.29-.21a1.84,1.84,0,0,0-.91.13m101.73,0a4.62,4.62,0,0,0,1.07,0c.3,0,.05-.08-.54-.08s-.83,0-.54.08M289,191.59c-.07.11,0,.15.17.09s.31.1.37.92l.07,1,0-1c0-1-.29-1.44-.59-1m50-.08c.45.15,1.63.19,1.54.05a1.84,1.84,0,0,0-.91-.13c-.45,0-.73,0-.62.08M133.49,194.3a2.27,2.27,0,0,0,.78,0c.19,0,0-.08-.44-.08s-.58,0-.34.08m50.8,0a2.27,2.27,0,0,0,.78,0c.19,0,0-.08-.44-.08s-.58,0-.34.08m2.73,0a3,3,0,0,0,.88,0c.24,0,0-.08-.44-.08s-.68,0-.44.08m48.07,0a2.27,2.27,0,0,0,.78,0c.19,0,0-.08-.44-.08s-.58,0-.34.08m50.8,0a2.27,2.27,0,0,0,.78,0c.19,0,0-.08-.44-.08s-.58,0-.34.08m50.8,0a2.27,2.27,0,0,0,.78,0c.19,0,0-.08-.44-.08s-.58,0-.34.08M187.55,229.76c-.37.28-.37.28,0,.1.23-.1.47-.13.54-.07s.12,0,.12-.1c0-.29-.24-.27-.7.07m-54.06,1.13a2.29,2.29,0,0,0,.78,0c.19,0,0-.08-.44-.08s-.58,0-.34.08m50.8,0a2.3,2.3,0,0,0,.78,0c.19,0,0-.08-.44-.08s-.58,0-.34.08" style="fill:#3c374a"/><path id="path4" d="M303.8,83.39c0,1.21,0,1.68.07,1a20.72,20.72,0,0,0,0-2.2c0-.57-.07-.06-.07,1.15m.37-1.37c0,.45,0,.64.08.41a2.44,2.44,0,0,0,0-.82c0-.23-.08,0-.08.41M199.85,83.67c0,1.06,0,1.49.07,1a15.68,15.68,0,0,0,0-1.92c0-.53-.07-.1-.07,1m2.46-.22.09,1,.06-.89a2.16,2.16,0,0,0-.09-1c-.09-.08-.12.32-.06.89m1.84-.81a3.41,3.41,0,0,0,0,1.05c.06.77.07.76.16-.25s.07-1.26-.12-.8m2.12,1.16a3.76,3.76,0,0,0,1,0c.24,0,0-.08-.54-.08s-.73,0-.44.08m48.46,0a3.76,3.76,0,0,0,1,0c.24,0,0-.08-.54-.08s-.73,0-.44.08m49.44.78c0,.55,0,.78.08.5a3.79,3.79,0,0,0,0-1c0-.28-.08-.05-.08.5M155.61,90.75c-.05.42,0,.7.07.62a1.23,1.23,0,0,0,.1-.77c-.07-.6-.07-.6-.17.15m183.16,29.32c0,.76,0,1.06.08.69a7.49,7.49,0,0,0,0-1.37c0-.38-.08-.07-.08.69" style="fill:#4d485a"/><path id="path7" d="M82.15,35a4.2,4.2,0,0,0,.78,3c.3.3.39.54.29.82s-.09.39.52.27c1.06-.22,1.93-.68,2-1.08.25-1,.19-1.29-.25-1.35-.24,0-.44,0-.44.14,0,.67-.78,0-1.66-1.36-1.17-1.86-1.27-1.89-1.27-.41M81.07,40a7.62,7.62,0,0,1-2,.34c-1.11,0-1.16.08-.76,1,.57,1.27,1.19,1.12,3.4-.84,1-.91.91-1-.64-.47M72,27.32m0,0" style="fill:#69227b"/><path id="path8" d="M363.08,70.18c-.07.17.11.21.66.16s.71-.14.65-.23c-.16-.25-1.2-.2-1.31.07m2.59,0c0,.1.33.18.73.18s.66,0,.44-.18c-.39-.23-1.17-.23-1.17,0M260,83.39c0,1.21,0,1.68.07,1a21,21,0,0,0,0-2.2c0-.57-.07-.06-.07,1.15M147.24,84c0,1.67.12,1.49.21-.46,0-.63,0-1.14-.09-1.14a4.49,4.49,0,0,0-.12,1.6m8.44,0c0,.86,0,1.21.07.78a9.83,9.83,0,0,0,0-1.55c0-.43-.07-.08-.07.78M199,236.57a2.09,2.09,0,0,0,.07.78c.16,0,.24-1.1.09-1.32s-.16.08-.16.54m50.8,0a2.05,2.05,0,0,0,.07.78c.16,0,.24-1.1.09-1.32s-.16.08-.16.54m-49.83.23c0,.3,0,.55.08.55a1.2,1.2,0,0,0,.16-.55c0-.3,0-.55-.08-.55s-.16.25-.16.55m1.22,0c0,.35,0,.5.09.32a1.41,1.41,0,0,0,0-.64c0-.18-.09,0-.09.32m49.59,0c0,.3,0,.55.08.55a1.18,1.18,0,0,0,.16-.55c0-.3,0-.55-.07-.55s-.16.25-.16.55m1.22,0c0,.35,0,.5.09.32a1.41,1.41,0,0,0,0-.64c0-.18-.09,0-.09.32" style="fill:#615c6d"/><path id="path9" d="M287.78,69.58c0,1.16,0,1.63.07,1.05a19.27,19.27,0,0,0,0-2.1c0-.58-.07-.11-.07,1.05M353,83.48c0,1.16,0,1.63.07,1.05a18.82,18.82,0,0,0,0-2.1c0-.58-.07-.11-.07,1.05m-15.45-.82c0,.6,0,.83.08.5a4.59,4.59,0,0,0,0-1.1c0-.27-.08,0-.08.6m-30.29.82c0,.55,0,.78.08.5a3.79,3.79,0,0,0,0-1c0-.28-.08-.05-.08.5m-149.48,1.1c0,.55,0,.78.08.5a3.79,3.79,0,0,0,0-1c0-.28-.08-.05-.08.5m-2.4,6.28c0,.29-.17.48-.54.62l-.54.2.52,0c.29,0,.55.11.59.22s.09-.18.11-.64a2,2,0,0,0-.05-.84c-.05,0-.09.19-.09.42M201,236.79c0,.35,0,.5.09.32a1.41,1.41,0,0,0,0-.64c0-.18-.09,0-.09.32m50.8,0c0,.35,0,.5.09.32a1.41,1.41,0,0,0,0-.64c0-.18-.09,0-.09.32" style="fill:#75707f"/><path id="path10" d="M81.46,40.72l-1,1,1-.91c1-.84,1.12-1,1-1a13.29,13.29,0,0,0-1,1" style="fill:#8c569a"/><path id="path11" d="M72,27.32" style="fill:#8c569a"/><path id="path12" d="M72,27.32" style="fill:#8c569a"/><path id="path13" d="M291.75,67.51a4.9,4.9,0,0,1,.3,2.16l.07,2V69.59c0-1.7-.07-2.1-.3-2.16s-.23,0-.06.08M199.25,81.42a13.57,13.57,0,0,0,1.76,0c.45,0,0-.07-.93-.07s-1.34,0-.82.07m100.51,0a.49.49,0,0,0-.13.32c0,.12.06.12.15,0a3.82,3.82,0,0,1,1.71-.28l1.56-.06-1.58,0a6.81,6.81,0,0,0-1.71.09m53.94,0a7.77,7.77,0,0,0,1.37,0c.41,0,.12-.07-.63-.07s-1.08,0-.74.07m-52,2.25c0,1.06,0,1.49.07,1a15.68,15.68,0,0,0,0-1.92c0-.53-.07-.1-.07,1m7.8-.27c0,.5,0,.69.08.41a3.07,3.07,0,0,0,0-.92c0-.22-.08,0-.08.51m49.84.64c0,.86,0,1.21.07.78a9.83,9.83,0,0,0,0-1.55c0-.43-.07-.08-.07.78m-53.35.55c0,.55,0,.78.08.5a3.79,3.79,0,0,0,0-1c0-.28-.08-.05-.08.5M136.54,193.07c0,.86,0,1.21.07.78a9.83,9.83,0,0,0,0-1.55c0-.43-.07-.08-.07.78m-.39.18c0,.76,0,1.06.08.69a7.49,7.49,0,0,0,0-1.37c0-.38-.08-.07-.08.69" style="fill:#898591"/><path id="path14" d="M82,35.28c0,.5,0,.69.08.41a3.07,3.07,0,0,0,0-.92c0-.22-.08,0-.08.51" style="fill:#a073ab"/><path id="path15" d="M72,27.32" style="fill:#a073ab"/><path id="path16" d="M336.12,84.16a2.27,2.27,0,0,0,.78,0c.19,0,0-.08-.44-.08s-.58,0-.34.08M135.05,157.34a2.27,2.27,0,0,0,.78,0c.19,0,0-.08-.44-.08s-.58,0-.34.08m153,36.59a2.27,2.27,0,0,0,.78,0c.19,0,0-.08-.44-.08s-.58,0-.34.08" style="fill:#8b9c93"/><path id="path17" d="M78.58,40.25a2.28,2.28,0,0,0,.78,0c.19,0,0-.08-.44-.08s-.58,0-.34.08" style="fill:#b28ebb"/><path id="path18" d="M367.69,69.76c0,.86,0,1.2.07.78a9.83,9.83,0,0,0,0-1.55c0-.43-.07-.08-.07.78m.36-.69c0,1,.11,1.07.67.46l.37-.41-.43.34-.43.34-.08-.8-.08-.8,0,.87M356.93,84.58c0,.55,0,.78.08.5a3.79,3.79,0,0,0,0-1c0-.28-.08-.05-.08.5" style="fill:#a4a1ab"/><path id="path19" d="M425.12,34.59c1,0,2.76,0,3.81,0s.19-.06-1.91-.06-3,0-1.91.06m0,1.28c1,0,2.76,0,3.81,0s.19-.06-1.91-.06-3,0-1.91.06m0,1.46c1,0,2.76,0,3.81,0s.19-.06-1.91-.06-3,0-1.91.06m0,1.28c1,0,2.76,0,3.81,0s.19-.06-1.91-.06-3,0-1.91.06m0,1.46c1,0,2.76,0,3.81,0S429.12,40,427,40s-3,0-1.91.06m0,1.28c1,0,2.76,0,3.81,0s.19-.06-1.91-.06-3,0-1.91.06M337.17,82.88c0,.69-.09.77-.57.84l-.54.08.54,0c.63,0,.79-.23.67-1.1-.07-.56-.08-.55-.11.15m-130.6,1.29a5.53,5.53,0,0,0,1.17,0c.29,0,0-.08-.64-.07s-.89,0-.53.08m48.26,0a5.52,5.52,0,0,0,1.17,0c.29,0,0-.08-.64-.07s-.89,0-.53.08M148.06,91.08c0,.6,0,.83.08.5a4.58,4.58,0,0,0,0-1.1c0-.28-.08,0-.08.6m-13,65.8c0,.09.22.16.49.16s.49,0,.49-.07-.22-.11-.49-.16-.49,0-.49.07m153,36.59c0,.09.22.16.49.16s.49,0,.49-.07-.22-.11-.49-.16-.49,0-.49.07" style="fill:#afadb4"/><path id="path20" d="M81.55,40.81l-.67.69.73-.63c.68-.59.82-.74.67-.74a6.52,6.52,0,0,0-.73.69" style="fill:#c1a4c9"/><path id="path21" d="M342.51,31.79l-.48.45V43.62l.48.45.48.45h72.72l.48-.45.48-.45V32.24l-.48-.45-.48-.45H343l-.48.45M351,36.1c0,.28-.13.37-.55.37-.8,0-1,.31-1,1.46s.22,1.46,1,1.46c.42,0,.55.09.55.37s-.13.37-.87.37c-1.3,0-1.48-.27-1.48-2.19s.18-2.2,1.48-2.2c.74,0,.87.06.87.37m2.83.73,1.16,1.1L353.85,39c-1.34,1.27-1.66,1.36-1.66.47,0-.62,0-.63-.93-.69l-.93-.06V37.11l.93-.06c.92-.06.93-.06.93-.69,0-.89.32-.8,1.66.47m37.71-.73a.39.39,0,0,1-.34.33c-.24,0-.34-.06-.34-.33s.1-.37.34-.33a.39.39,0,0,1,.34.33m-33,.2c.55.4.7,1.08.24,1.08a1,1,0,0,1-.59-.46c-.92-1.32-2.7.27-2.06,1.84.36.9,1.72,1.18,2.14.45.21-.37.78-.51.78-.2,0,1.45-2.81,1.67-3.49.27-1.06-2.18,1.11-4.36,3-3m20.08,1.62c.85,2.16.86,2.21.45,2.21-.17,0-.4-.25-.51-.55-.18-.5-.29-.55-1-.55s-.86.05-1,.55-.81.79-.81.4c0-.13.75-2.1,1.35-3.57.38-.93.8-.54,1.61,1.5m-9.05-1.29c0,.22.19.4.34.4a.28.28,0,0,1,.28.27.29.29,0,0,1-.29.27c-.22,0-.29.23-.29,1s.06,1,.31,1,.28.12.24.32c-.23,1-1.33-.08-1.33-1.36,0-.53-.09-1-.2-1s-.2-.12-.2-.27.09-.27.2-.27.2-.15.2-.34c0-.7.64-.75.75-.06m27.16,0c0,.22.19.4.34.4a.28.28,0,0,1,.28.27.28.28,0,0,1-.29.27c-.23,0-.29.23-.29,1s.06,1,.31,1,.28.12.24.32c-.23,1-1.33-.08-1.33-1.36,0-.53-.09-1-.2-1s-.2-.12-.2-.27.09-.27.2-.27.2-.15.2-.34c0-.7.64-.75.75-.06m14.46,0c0,.22.19.4.34.4a.28.28,0,0,1,.28.27.28.28,0,0,1-.29.27c-.23,0-.29.23-.29,1s.07,1,.31,1,.28.12.24.32c-.23,1-1.33-.08-1.33-1.36,0-.53-.09-1-.2-1s-.2-.12-.2-.27.09-.27.2-.27.2-.15.2-.34c0-.7.64-.75.75-.06m-49.6.68c0,.15-.16.26-.35.26-.6,0-.82.4-.82,1.5,0,.94,0,1.06-.39,1.06s-.39-.12-.39-1.55V37l.69,0a1.86,1.86,0,0,0,.81-.09c.18-.17.46,0,.46.34m15.65.27c-.28.87-.24,1,.41.88.46-.06.46-.06.15-.85l-.31-.79-.24.76m-12.92-.19a1.42,1.42,0,0,1,.39.92v.55h-1.17c-1.18,0-1.37.11-.94.51a1.46,1.46,0,0,0,1.52,0c.56-.33.73,0,.24.45a1.52,1.52,0,0,1-2.58-1.25A1.33,1.33,0,0,1,363.23,37a1.62,1.62,0,0,1,1.07.37m3.46.18a4.13,4.13,0,0,1,.25,1.5v1l-.65,0a2.3,2.3,0,0,0-.86.1c-.39.23-1.2-.22-1.34-.73s.47-1.16,1.43-1.16c.54,0,.66-.06.61-.32s-.89-.54-1.2-.24-.72.25-.72-.07c0-.77,2.08-.86,2.48-.1m5.38-.23a2.34,2.34,0,0,1,.44.91l.14.59h-1.19a4.71,4.71,0,0,0-1.19.08c0,.57,1.15.95,1.47.47.18-.27.68-.22.68.07s-.58.74-1.31.74A1.63,1.63,0,0,1,371,37.5a1.66,1.66,0,0,1,2.18-.16m7.38-.1c0,.17.05.17.23,0a1.51,1.51,0,0,1,1.9.26c1.08,1.29-.17,3.24-1.63,2.53-.51-.25-.51-.24-.51.47,0,.52-.08.72-.29.72s-.29-.36-.29-2.1.05-2.1.29-2.1.29.1.29.22m3.71,0c0,.17.05.17.23,0a1.41,1.41,0,0,1,1.86.27c.94,1.34-.16,3.13-1.6,2.62-.46-.16-.49-.14-.49.46,0,.44-.09.64-.29.64s-.29-.36-.29-2.1,0-2.1.29-2.1.29.1.29.22m5.65.26a1.6,1.6,0,1,1-1.16-.48,1.25,1.25,0,0,1,1.16.48m1.58,1.07c0,1.26-.06,1.55-.29,1.55s-.29-.29-.29-1.55.06-1.55.29-1.55.29.29.29,1.55m1.37-1.35c0,.15.08.14.28,0,1-.79,2.06.16,2.06,1.87s-.74,1.55-.82-.18l-.06-1.23h-1.17l-.06,1.23c-.05,1.09-.1,1.23-.44,1.23s-.38-.13-.38-1.55c0-1.26.05-1.55.29-1.55s.29.09.29.21m5.67,0c0,.17.05.17.23,0a1.36,1.36,0,0,1,1.48,0c.18.17.29.17.47,0a1.42,1.42,0,0,1,1.71.13c.4.7.26,2.76-.19,2.76s-.39-.12-.39-1.29V37.54l-.54.06c-.52.06-.54.1-.59,1.29s-.11,1.23-.43,1.23-.38-.16-.43-1.23-.08-1.23-.55-1.23-.49.05-.55,1.23-.1,1.23-.44,1.23-.38-.13-.38-1.55c0-1.26.06-1.55.29-1.55s.29.1.29.22m7.23.15a1.42,1.42,0,0,1,.39.92v.55h-1.17c-1.18,0-1.37.11-.94.51a1.46,1.46,0,0,0,1.52,0c.56-.33.73,0,.24.45a1.52,1.52,0,0,1-2.58-1.25A1.34,1.34,0,0,1,404.65,37a1.62,1.62,0,0,1,1.07.37m1.56-.16c0,.15.08.14.28,0,1-.79,2.06.16,2.06,1.87s-.74,1.55-.82-.18l-.06-1.23h-1.17l-.06,1.23c-.05,1.09-.1,1.23-.44,1.23s-.38-.13-.38-1.55c0-1.26.06-1.55.29-1.55s.29.09.29.21m-44.7.56c-.41.39-.27.52.55.52.65,0,.78-.06.73-.32s-.94-.52-1.28-.2m8.86.08c-.18.44-.17.44.66.44s1-.13.55-.51-1.07-.27-1.21.07m9.25.2c-.41,1,.5,1.95,1.29,1.34a1.41,1.41,0,0,0,0-1.6.83.83,0,0,0-1.34.27m3.68,0c-.47,1,.51,2,1.32,1.36a1.41,1.41,0,0,0,0-1.6.88.88,0,0,0-1.37.25m3.55,0c-.33.82,0,1.44.81,1.44.63,0,.67,0,.73-.7.11-1.2-1.11-1.79-1.54-.74M404,37.78c-.41.39-.27.52.55.52.65,0,.78-.06.73-.32s-.94-.52-1.28-.2M366,39c-.36.34-.1.63.5.58.86-.08,1-.7.2-.7a1.5,1.5,0,0,0-.7.12m-51.3,24.48c-2.37.69-2.76,1.77-2.76,7.72v4.45H221.77c-66.3,0-90.44.05-91.2.21a3.6,3.6,0,0,0-2.87,2.68c-.31,1.37-.32,175.78,0,177.14a4,4,0,0,0,2,2.52c.88.45,247.33.58,249,.13a3.54,3.54,0,0,0,2.6-2.64c.37-1.62.3-188.66-.07-189.84a3.65,3.65,0,0,0-2.55-2.37c-1.43-.4-27.7-.39-29.15,0A3.65,3.65,0,0,0,347,65.82c-.07.36-.2.65-.28.65s-.21-.29-.28-.65a3.65,3.65,0,0,0-2.51-2.37c-1.4-.39-27.89-.39-29.23,0m64.38.75c1.49.66,1.53.84,1.6,6.43l.06,5H347.48l.06-5c.06-5.57.11-5.75,1.57-6.42,1-.45,29-.46,30,0M334,68.64c0,.46.06.51.49.44.75-.13,1.07.24,1.07,1.26,0,.67-.07.89-.29.89S335,71,335,70.41a1.5,1.5,0,0,0-.2-.93c-.38-.22-.77.31-.77,1,0,.39-.09.71-.2.71s-.2-.64-.2-1.55.08-1.55.2-1.55.2.23.2.52m-9.81.8.55,1.14.45-1.14c.65-1.63,1-1.52,1,.33,0,1.56-.38,2.11-.41.59l0-.87-.41.87c-.22.48-.51.87-.64.87s-.42-.39-.64-.87l-.41-.87v.87c0,.65-.08.87-.3.87s-.29-.28-.29-1.46c0-1.86.34-2,1.13-.33m8.44-.7a.44.44,0,0,0,.24.37c.2.09.2.13,0,.21s-.33,1.54,0,1.54a.2.2,0,0,1,.2.2c0,.71-.88,0-.94-.74a1.71,1.71,0,0,0-.29-1c-.18-.12-.17-.18,0-.25a.41.41,0,0,0,.24-.35.3.3,0,0,1,.59,0m-4,.58a1.34,1.34,0,0,1,0,1.62,1.19,1.19,0,0,1-1.63,0,1.16,1.16,0,0,1,.82-1.91,1.29,1.29,0,0,1,.77.29m2.66.19c.3.73.24,1.72-.1,1.72s-.29-.21-.29-.8c0-.79-.22-1.06-.73-.89-.15,0-.24.41-.24.89s-.08.81-.29.81-.29-.24-.29-1.07V69.08l.89,0c.78,0,.91,0,1.07.45m-3.83.14c-.22.53,0,1.13.41,1.13s.58-1.24,0-1.34a.42.42,0,0,0-.46.21m-150,24.27v17.56H128.26V95c0-18.62-.11-17.35,1.54-18.24l.71-.39h47V93.91m50.8,0v17.56h-50V76.35h50V93.91m50.8,0v17.56h-50V76.35h50V93.91m50.8,0v17.56h-50V76.35h50V93.91m50.8,0v17.56h-50V76.35h50V93.91M183.75,82c-.27.2-.4.36-.28.36a.78.78,0,0,0,.44-.22c.18-.17.23.09.23,1.19,0,.82.08,1.41.2,1.41s.2-.64.2-1.55c0-1.67,0-1.73-.78-1.19m-6.25,48.12v17.93H128.26V112.21H177.5v17.93m50.8,0v17.93h-50V112.21h50v17.93m50.8,0v17.93h-50V112.21h50v17.93m50.8,0v17.93h-50V112.21h50v17.93m50.8,0v17.93h-50V112.21h50v17.93M177.5,166.72v17.93H128.26V148.8H177.5v17.93m50.8,0v17.93h-50V148.8h50v17.93m50.8,0v17.93h-50V148.8h50v17.93m50.8,0v17.93h-50V148.8h50v17.93m50.8,0v17.93h-50V148.8h50v17.93M177.5,203.31v17.93H128.26V185.39H177.5v17.93m50.8,0v17.93h-50V185.39h50v17.93m50.8,0v17.93h-50V185.39h50v17.93m50.8,0v17.93h-50V185.39h50v17.93m50.8,0v17.93h-50V185.39h50v17.93M177.5,239.9v17.93H154c-23.37,0-23.47,0-24.18-.38-1.62-.87-1.49.8-1.54-18.42L128.26,222H177.5V239.9m50.8,0v17.93h-50V222h50V239.9m50.8,0v17.93h-50V222h50V239.9m50.8,0v17.93h-50V222h50V239.9m50.8-1.08c0,19.07.11,17.74-1.56,18.62l-.74.39H330.69V222h50v16.85m-44.55-10.45c-.27.2-.4.36-.28.36a.78.78,0,0,0,.44-.22c.18-.17.23.09.23,1.19,0,.82.08,1.41.2,1.41s.2-.64.2-1.55c0-1.67,0-1.73-.78-1.19m89.59,19.85a3.7,3.7,0,0,0-2.26,2.37c-.12.46-.33.83-.46.83a7.46,7.46,0,0,0-1.43.56c-6.32,3-4.13,12.32,2.88,12.32a6.48,6.48,0,0,0,5.93-9.39c-.61-1.15-.61-1.16-.26-1.73,1.74-2.79-1.15-6-4.4-5m2.25,1.92c0,.1-.35.18-.78.18-.65,0-.78.06-.78.37s.13.37.57.37a1.06,1.06,0,0,1,.29,2.09c-.59.14-1.45-.29-1.45-.72s.28-.34.59,0,1.05.26,1.13-.21a.63.63,0,0,0-1-.66c-.74.43-1,0-.65-1.2.13-.43,2-.65,2-.23m-4.48,2.23a3.78,3.78,0,0,0,5.42,2,6.23,6.23,0,0,1,.71-.35,7.22,7.22,0,0,1,.57,1.08,6.61,6.61,0,0,1-1.21,7.22,6.54,6.54,0,0,1-10.28-1.71,6.32,6.32,0,0,1,3.11-8.44c1.47-.66,1.41-.67,1.67.24m-1.94,3.51c-.41.46,2,2.49,2.91,2.49a10.14,10.14,0,0,0,3-2c.26-.62-.27-.75-3-.75-2,0-2.74.06-2.91.25m-.22,2.45c0,1.69,0,1.69,3.13,1.69s3.13,0,3.13-1.69V257.1l-1.35.92a2.19,2.19,0,0,1-3.56,0l-1.35-.92v1.25" style="fill:#91cc92"/><path id="path22" d="M151.2,83.48c0,1.16,0,1.63.07,1.05a18.82,18.82,0,0,0,0-2.1c0-.58-.07-.11-.07,1.05m149.87.18c0,1.06,0,1.49.07,1a15.33,15.33,0,0,0,0-1.92c0-.53-.07-.1-.07,1M150.61,84c0,.86,0,1.21.07.78a9.83,9.83,0,0,0,0-1.55c0-.43-.07-.08-.07.78m203.59-.78a3.73,3.73,0,0,0,1,0c.24,0,0-.08-.54-.08s-.73,0-.44.08m-15,36.64c0,.86,0,1.21.07.78a9.83,9.83,0,0,0,0-1.55c0-.43-.07-.08-.07.78" style="fill:#bdbbc3"/><path id="path23" d="M206.67,236.61c0,.45,0,.64.08.41a2.45,2.45,0,0,0,0-.82c0-.23-.08,0-.08.41m50.8,0c0,.45,0,.64.08.41a2.45,2.45,0,0,0,0-.82c0-.23-.08,0-.08.41" style="fill:#acc5b0"/><path id="path24" d="M359.68,38.57c0,.91,0,1.3.07.87a11.13,11.13,0,0,0,0-1.65c0-.48-.07-.13-.07.77m8.2.46c0,.65,0,.92.08.59a5.5,5.5,0,0,0,0-1.19c0-.33-.08-.06-.08.59m30.67.09c0,.6,0,.83.08.5a4.54,4.54,0,0,0,0-1.1c0-.28-.08,0-.08.6m3.32,0c0,.6,0,.83.08.5a4.55,4.55,0,0,0,0-1.1c0-.28-.08,0-.08.6m-9,.09c0,.55,0,.78.08.5a3.79,3.79,0,0,0,0-1c0-.28-.08-.05-.08.5m14.46,0c0,.55,0,.78.08.5a3.79,3.79,0,0,0,0-1c0-.28-.08-.05-.08.5m-78,30.92c0,.65,0,.92.08.59a5.51,5.51,0,0,0,0-1.19c0-.33-.08-.06-.08.59m1.94.37c0,.45,0,.64.08.41a2.44,2.44,0,0,0,0-.82c0-.23-.08,0-.08.41m3.71.09c0,.4,0,.55.09.32a1.89,1.89,0,0,0,0-.73c0-.18-.09,0-.08.41" style="fill:#a7d6a7"/><path id="path25" d="M356.36,84c0,.86,0,1.21.07.78a9.83,9.83,0,0,0,0-1.55c0-.43-.07-.08-.07.78m-2.17-.23a3.77,3.77,0,0,0,1,0c.24,0,0-.08-.54-.08s-.73,0-.44.08" style="fill:#cbc9cf"/><path id="path26" d="M350.87,37.15a3.73,3.73,0,0,0,1,0c.24,0,0-.08-.54-.08s-.73,0-.44.08m41.44,1.42c0,.91,0,1.3.07.87a11,11,0,0,0,0-1.65c0-.48-.07-.13-.07.77m5.67,0c0,.91,0,1.3.07.87a11.13,11.13,0,0,0,0-1.65c0-.48-.07-.13-.07.77m8.79,0c0,.91,0,1.3.07.87a11.13,11.13,0,0,0,0-1.65c0-.48-.07-.13-.07.77m-38.23-1.06a2,2,0,0,1,.31,1.07l.08.91,0-1c0-.72-.1-1-.31-1.07s-.22,0-.06.08m.92.13a3.3,3.3,0,0,0,0,1.05l.08.8,0-.95c0-.73.11-1,.38-1s.32-.09,0-.11a.47.47,0,0,0-.45.23m26.24-.13a2,2,0,0,1,.31,1.07l.08.91,0-1c0-.72-.1-1-.31-1.07s-.22,0-.06.08m.92.13a3.34,3.34,0,0,0,0,1.05l.08.8,0-.95c0-.73.11-1,.38-1s.32-.09,0-.11a.48.48,0,0,0-.45.23m13.54-.13a2,2,0,0,1,.31,1.07l.08.91,0-1c0-.72-.1-1-.31-1.07s-.22,0-.06.08m.92.13a3.36,3.36,0,0,0,0,1.05l.08.8,0-.95c0-.73.11-1,.38-1s.32-.09,0-.11a.47.47,0,0,0-.45.23m-8.61,1.3c0,.7,0,1,.08.59a6.45,6.45,0,0,0,0-1.28c0-.32-.08,0-.08.69m-2.54.09c0,.65,0,.92.08.59a5.51,5.51,0,0,0,0-1.19c0-.33-.08-.06-.08.59m.59,0c0,.65,0,.92.08.59a5.39,5.39,0,0,0,0-1.19c0-.33-.08-.06-.08.59m-40.25.09c0,.6,0,.83.08.5a4.54,4.54,0,0,0,0-1.1c0-.28-.08,0-.08.6m34.19,0c0,.6,0,.83.08.5a4.54,4.54,0,0,0,0-1.1c0-.28-.08,0-.08.6m14.46,0c0,.6,0,.83.08.5a4.54,4.54,0,0,0,0-1.1c0-.28-.08,0-.08.6m-36.55-.5a3.09,3.09,0,0,0-1.22.19,5.41,5.41,0,0,0,2.43-.16c.1-.09.15-.15.1-.13s-.64.06-1.31.1M395,39.3c0,.5,0,.69.08.41a3.06,3.06,0,0,0,0-.92c0-.22-.08,0-.08.51m14.46,0c0,.5,0,.69.08.41a3.06,3.06,0,0,0,0-.92c0-.22-.08,0-.08.51m-58.62-.51a3.73,3.73,0,0,0,1,0c.24,0,0-.08-.54-.08s-.73,0-.44.08m12,0a6.57,6.57,0,0,0,1.27,0c.35,0,.06-.07-.64-.07s-1,0-.64.07m41.42,0a6.57,6.57,0,0,0,1.27,0c.35,0,.06-.07-.64-.07s-1,0-.64.07M323.15,68.55a6.71,6.71,0,0,0,0,1.51l.07,1.26,0-1.44c0-1.21.08-1.42.34-1.33s.25,0,.18-.07a.33.33,0,0,0-.6.07m.31,1.67a2.75,2.75,0,0,0,.08,1,4.41,4.41,0,0,0,.06-1.93c-.08-.07-.14.35-.14.94m8.65-.09c0,.45,0,.64.08.41a2.45,2.45,0,0,0,0-.82c0-.23-.08,0-.08.41m.39-.09c0,.4,0,.55.09.32a1.85,1.85,0,0,0,0-.73c0-.18-.09,0-.08.41M157.08,91.15l.59.14-.54.1c-.5.09-.5.1,0,.08.67,0,.63-.38,0-.42s-.54,0,0,.11m45,145.53c0,.16,1,.24,1.09.09s-.16-.16-.49-.16a1.35,1.35,0,0,0-.6.07m3.13,0s.22.11.49.16.49,0,.49-.07-.22-.16-.49-.16-.49,0-.49.07m47.68,0c0,.16,1,.24,1.09.09s-.16-.16-.49-.16a1.35,1.35,0,0,0-.6.07m3.13,0s.22.11.49.16.49,0,.49-.07-.22-.16-.49-.16-.49,0-.49.07" style="fill:#b8ddb9"/><path id="path27" d="M353.6,82.48c0,.4,0,.55.09.32a1.87,1.87,0,0,0,0-.73c0-.18-.09,0-.08.41M358.7,84c0,.86,0,1.21.07.78a9.83,9.83,0,0,0,0-1.55c0-.43-.07-.08-.07.78m-5.09.64c0,.5,0,.69.08.41a3.06,3.06,0,0,0,0-.91c0-.23-.08,0-.08.51" style="fill:#d8d6db"/><path id="path28" d="M377.05,39a3.72,3.72,0,0,0,1,0c.24,0,0-.08-.54-.08s-.73,0-.44.08M74.14,48.6a1,1,0,0,0,.23.64c.18.17,40.76.22,181.43.22H437V48.17H74.14v.42m255.63,22c0,.4,0,.55.09.32a1.87,1.87,0,0,0,0-.73c0-.18-.09,0-.08.41M310.05,83.94c0,.91,0,1.3.07.87a11,11,0,0,0,0-1.65c0-.48-.07-.13-.07.77m-3.53.55c0,.6,0,.83.08.5a4.59,4.59,0,0,0,0-1.1c0-.28-.08,0-.08.6M136,155.52a2.07,2.07,0,0,0,.06.78l.13.64,0-.78c0-.73-.05-1-.22-.64m153,36.59a2.1,2.1,0,0,0,.06.78l.13.64,0-.78c0-.73-.05-1-.22-.64" style="fill:#e3e2e4"/><path id="path29" d="M353.65,36.83a8,8,0,0,0,1.06.92,5.35,5.35,0,0,0-.86-.92,8.11,8.11,0,0,0-1.06-.92,5.35,5.35,0,0,0,.86.92m37.29,1.83c0,.86,0,1.21.07.78a9.62,9.62,0,0,0,0-1.55c0-.43-.07-.08-.07.78m-37.3.41-1,1,1-.91a13.26,13.26,0,0,0,1-1c0-.14-.18,0-1.08.91M335.43,70.49c0,.45,0,.64.08.41a2.44,2.44,0,0,0,0-.82c0-.23-.08,0-.08.41m-4.5.09c0,.4,0,.55.09.32a1.86,1.86,0,0,0,0-.73c0-.18-.09,0-.08.41M141.16,88.06c-.35.33-.39.61-.39,2.93,0,3.7-1.44,3.29,11.72,3.29s11.72.4,11.72-3.29,1.44-3.29-11.72-3.29c-10.68,0-11,0-11.33.37m3.28,2c.35.33.29.71-.19,1.19l-.43.42h.43c.23,0,.42.08.42.18s-.36.18-.8.18c-.88,0-.88,0,.1-1.05.32-.34.34-.45.13-.64s-.27-.18-.35,0a.42.42,0,0,1-.37.23c-.22,0-.24-.08-.07-.37a.72.72,0,0,1,1.13-.15m2.08.07a1.28,1.28,0,0,1-.08,1.72c-.89.83-1.83-.58-1.07-1.6.36-.48.72-.52,1.15-.12m1.68.81c0,.61-.09,1.1-.2,1.1s-.2-.38-.2-.85c0-.73,0-.81-.29-.62s-.29.18-.29-.06.48-.65.83-.67c.08,0,.15.49.15,1.09m1.9-.87c.7.86,0,2.42-.91,2-.72-.36-.4-2.2.38-2.2a.77.77,0,0,1,.53.23m3.66.06a1.28,1.28,0,0,1-.08,1.72c-.89.83-1.83-.58-1.07-1.6.36-.48.72-.52,1.15-.12m2.07.43c0,.41.1.75.24.79s.13.18-.13.43-.4.28-.45.12-.29-.23-.55-.23c-.58,0-.59-.21,0-1.12s.94-.93.94,0m3.44-.58c.45.28.5,1.84.07,2.06a.92.92,0,0,1-1.23-.29c-.13-.31.37-.37.57-.07.09.14.2.14.35,0s.14-.27-.12-.45c-.42-.29-.44-.47,0-.47a.28.28,0,0,0,.29-.27c0-.33-.52-.37-.64,0,0,.13-.15.17-.24.1-.46-.4.44-.9,1-.55m2.19.08c.4.37.3,1.75-.14,2s-.52.24-.88-.1c-.63-.59-.29-2.09.47-2.09a.93.93,0,0,1,.55.22m-15.79.52c-.35.62.11,1.52.51,1s.35-.91,0-1.19-.32-.14-.51.18m3.63-.21c-.15.22.22.44.48.29s.08-.46-.2-.46a.39.39,0,0,0-.28.17m3.6.21c-.35.62.11,1.52.51,1s.35-.91,0-1.19-.32-.14-.51.18m7.76-.26c-.34.32-.14,1.35.27,1.35s.39-.1.34-.67-.33-.94-.61-.67m-5.56.61c-.2.31-.2.37.05.37a.33.33,0,0,0,.29-.37c0-.2,0-.37-.05-.37a1.51,1.51,0,0,0-.29.37m-3.17.27c0,.3-.88.39-1.06.12s.09-.39.6-.39c.27,0,.46.11.46.27m5.68,0c0,.1-.22.21-.49.24s-.49,0-.49-.24.14-.28.49-.24.49.14.49.24m-8.28,0c-.26.24-.13.43.27.43.23,0,.37-.1.33-.22a.39.39,0,0,0-.6-.21m47.35,142c-.35.33-.39.61-.39,2.93,0,3.62-.69,3.29,7,3.29s7,.32,7-3.29.69-3.29-7-3.29c-6,0-6.27,0-6.64.37m50.8,0c-.35.33-.39.61-.39,2.93,0,3.62-.69,3.29,7,3.29s7,.32,7-3.29.69-3.29-7-3.29c-6,0-6.27,0-6.64.37m-43.22,2.32c.24.22.26.33.08.38s-.33,1,0,1a.2.2,0,0,1,.2.2c0,.57-.69,0-.8-.65-.19-1.12,0-1.42.57-.89m50.8,0c.24.22.26.33.08.38s-.33,1,0,1a.2.2,0,0,1,.2.2c0,.57-.69,0-.8-.65-.19-1.12,0-1.42.57-.89m-54,.19c.38.09.51,1.52.15,1.52-.11,0-.2-.29-.2-.66,0-.83-.46-.76-.55.08s-.43.74-.43-.08-.46-.76-.55.08-.43.69-.43-.25v-.83l.83,0a8.29,8.29,0,0,1,1.17.11m2.09.14c.32.36.08,1.32-.37,1.43a.75.75,0,0,1-1-.75c0-.85.84-1.27,1.36-.67m3.13.09a1.07,1.07,0,0,1-.45,1.35c-.45.16-1-.3-1-.87a.77.77,0,0,1,1.41-.48m1.57-.16c0,.09-.13.17-.29.17s-.29.19-.29.64-.09.64-.29.64c-.67,0-.38-1.59.29-1.61.32,0,.59.06.59.16m44-.07c.38.09.51,1.52.15,1.52-.11,0-.2-.29-.2-.66,0-.83-.46-.76-.55.08s-.43.74-.43-.08-.46-.76-.55.08-.43.69-.43-.25v-.83l.83,0a8.3,8.3,0,0,1,1.17.11m2.09.14c.32.36.08,1.32-.37,1.43a.75.75,0,0,1-1-.75c0-.85.84-1.27,1.36-.67M257,236a1.07,1.07,0,0,1-.45,1.35c-.45.16-1-.3-1-.87A.77.77,0,0,1,257,236m1.57-.16c0,.09-.13.17-.29.17s-.29.19-.29.64-.09.64-.29.64c-.66,0-.38-1.59.29-1.61.32,0,.59.06.59.16" style="fill:#d6f8d6"/><path id="path30" d="M380,37.26a12.37,12.37,0,0,0,0,2.06l.06,1.82,0-2c0-1.38.1-1.93.23-1.74s.19.23.19,0-.35-.43-.5-.08m-17.69,1.1a2.19,2.19,0,0,0,1,.09l.86-.06-1-.09c-.56,0-.95,0-.86.06m41.42,0a2.19,2.19,0,0,0,1,.09l.86-.06-1-.09c-.56,0-.94,0-.86.06m-32.17.07a3.73,3.73,0,0,0,1,0c.24,0,0-.08-.54-.08s-.73,0-.44.08m5.57.18a2.28,2.28,0,0,0,.78,0c.19,0,0-.08-.44-.08s-.58,0-.34.08m6.92,1.75,0,.78.08-.69c0-.44.15-.65.29-.57s.16,0,.07-.09c-.29-.44-.51-.18-.47.57M73,48.64A2,2,0,0,0,74,50.33c.4.17,41.65.22,181.73.22H437v-1.1H255.8c-140.67,0-181.24,0-181.43-.22a1,1,0,0,1-.23-.64c0-.35-.1-.42-.59-.42s-.59.07-.59.47M291.48,70.22c0,.8,0,1.11.08.68a8.6,8.6,0,0,0,0-1.46c0-.37-.08,0-.08.78m34.07-1a2.11,2.11,0,0,1,.31,1.14l.07,1,0-1.14c0-1,0-1.14-.31-1.14s-.27,0-.11.14M200.44,83.67c0,1.06,0,1.49.07,1a15.68,15.68,0,0,0,0-1.92c0-.53-.07-.1-.07,1m107.46-.27c0,.6,0,.83.08.5a4.54,4.54,0,0,0,0-1.1c0-.28-.08,0-.08.6M158.41,84.67c0,.5,0,.69.08.41a3,3,0,0,0,0-.91c0-.23-.08,0-.08.51m127.21,35.4c0,.76,0,1.06.08.69a7.49,7.49,0,0,0,0-1.37c0-.38-.08-.07-.08.69m50.8,0c0,.76,0,1.06.08.69a7.49,7.49,0,0,0,0-1.37c0-.38-.08-.07-.08.69M133.21,156.66c0,.75,0,1.06.08.69a7.49,7.49,0,0,0,0-1.37c0-.38-.08-.07-.08.69m50.8,0c0,.75,0,1.06.08.69a7.49,7.49,0,0,0,0-1.37c0-.38-.08-.07-.08.69m50.8,0c0,.75,0,1.06.08.69a7.49,7.49,0,0,0,0-1.37c0-.38-.08-.07-.08.69m50.8,0c0,.75,0,1.06.08.69a7.49,7.49,0,0,0,0-1.37c0-.38-.08-.07-.08.69m50.8,0c0,.75,0,1.06.08.69a7.49,7.49,0,0,0,0-1.37c0-.38-.08-.07-.08.69m-47.87,73.18c0,.75,0,1.06.08.69a7.49,7.49,0,0,0,0-1.37c0-.38-.08-.07-.08.69" style="fill:#e9f2ea"/><path id="path31" d="M72,150.59c0,95.63.05,123.32.23,123.49.34.32,364.19.32,364.53,0,.18-.17.23-25.27.23-111.87V50.55H255.75c-156.48,0-181.31,0-181.78-.26a1.9,1.9,0,0,1-1-1.67v-.45H437V27.32H72V150.59m344.37-119c.27.25.31,1.08.31,6.3s0,6-.31,6.3c-.47.44-73.56.44-74,0s-.46-12.16,0-12.6,73.56-.44,74,0M83.51,35c1.31,2,1.07,2,2.45-.05s1.51-2.2,1.43.64c0,1.76-.13,2.38-.31,2.38s-.25.07-.25.16a8.71,8.71,0,0,1-3,1.32,2.24,2.24,0,0,0-1.32.75c-1.92,2.44-4.26,2.72-4.57.54l-.1-.71H79c2.44,0,4.44-1.1,3.61-1.93-.57-.57-.92-2.4-.73-3.84s.35-1.3,1.67.75M431,35.19v.64h-8L423,35.4c-.15-1-.15-1,4.11-.91l4,0v.64m-81.53.73c-.62.24-.87,1-.79,2.33s.4,1.73,1.46,1.76,1.06-.5,0-.58l-.73-.06V36.49l.73-.06c.49,0,.73-.15.73-.33s-.78-.43-1.42-.18m2.69.63c0,.62,0,.63-.93.69s-.93.06-.93.7,0,.64.93.7.93.06.93.69c0,.88.32.8,1.56-.38l1.06-1-1.06-1c-1.24-1.18-1.56-1.26-1.56-.38m4.56-.5c-1.43.25-1.78,2.78-.52,3.7.77.57,2.21.38,2.5-.32.18-.44,0-.47-.47-.06-1,1-2.36.23-2.36-1.27s1.24-2.33,2.26-1.36c.57.53.67.56.67.19s-1.25-1-2.08-.88m34.13.05c0,.1.13.18.29.18s.29-.08.29-.18-.13-.18-.29-.18-.29.08-.29.18m-14.41,2c-.51,1.32-.7,2-.54,2s.32-.27.42-.59a1.28,1.28,0,0,1,2.3-.06c.53,1.19.69.67.18-.58-.28-.68-.63-1.58-.79-2-.44-1.18-.71-1-1.57,1.24M369,36.73a.5.5,0,0,1-.34.53c-.33.08-.33.08,0,.1s.34.21.34,1.2c0,1.18.23,1.56,1,1.56.36,0,.22-.32-.18-.42-.63-.15-.58-2.27,0-2.38l.44-.08-.44,0c-.33,0-.44-.14-.44-.48s-.09-.46-.2-.46-.2.2-.2.44m27.16,0a.5.5,0,0,1-.34.53c-.33.08-.33.08,0,.1s.34.21.34,1.2c0,1.18.24,1.56,1,1.56.36,0,.22-.32-.18-.42-.63-.15-.58-2.27,0-2.38l.44-.08-.44,0c-.33,0-.44-.14-.44-.48s-.09-.46-.2-.46-.2.2-.2.44m14.46,0a.5.5,0,0,1-.34.53c-.33.08-.33.08,0,.1s.34.21.34,1.2c0,1.18.23,1.56,1,1.56.36,0,.22-.32-.18-.42-.63-.15-.58-2.27,0-2.38l.44-.08-.44,0c-.33,0-.44-.14-.44-.48s-.09-.46-.2-.46-.2.2-.2.44M378,37.55c.35,1,.3,1.12-.49,1.12s-.7,0-.6-.5c.34-1.59.67-1.77,1.09-.61m-17.28-.24c-.35.26-.35.28,0,.18a2.54,2.54,0,0,1,.54-.11.18.18,0,0,0,.18-.18c0-.26-.26-.22-.7.11m1.92-.07c-1.32.6-.77,2.89.69,2.89.41,0,1.46-.72,1.07-.73a.46.46,0,0,0-.35.18c-.23.35-1.23.2-1.55-.22-.47-.63-.39-.69.87-.69,1.09,0,1.17,0,1.17-.41a1.25,1.25,0,0,0-1.9-1m3.32,0c-.24.09-.44.25-.44.35s.26.24.52,0a1,1,0,0,1,1.31.25c.27.41-.11.67-1,.68s-1.13.4-1,1,.93.79,1.58.39c.43-.26.49-.26.49,0s.09.28.2.28.2-.52.2-1.19c0-1.66-.62-2.22-1.91-1.73m5.68,0c-1.38.51-.9,2.92.58,2.92.54,0,1.28-.46,1.07-.66s-.25,0-.38.08a1.16,1.16,0,0,1-1.51-.14c-.37-.64-.24-.74,1-.74,1,0,1.17,0,1.17-.35a1.44,1.44,0,0,0-1.89-1.11m9.34.11c-.38.25-.48.26-.63,0s-.17.52-.17,1.71.07,2,.19,2,.2-.33.2-.74c0-.73,0-.74.43-.46.59.39.87.36,1.43-.16,1.23-1.15-.07-3.27-1.45-2.36m3.7,0c-.33.22-.49.25-.55.09-.25-.7-.44,0-.44,1.7,0,1.16.08,1.92.2,1.92s.2-.33.2-.73c0-.83,0-.84.7-.43,1,.6,2-.41,1.75-1.7a1.18,1.18,0,0,0-1.86-.85m3.71-.18a1.45,1.45,0,1,0,1.14,2.66c1.28-.89.31-3.15-1.14-2.66m4.93.15c-.24.16-.43.2-.43.09a.19.19,0,0,0-.2-.19c-.11,0-.2.61-.2,1.46s.08,1.46.2,1.46.2-.51.2-1.15c0-1.22.2-1.59.88-1.59s.88.37.88,1.59c0,.65.09,1.15.2,1.15s.2-.52.2-1.19c0-1.66-.68-2.31-1.71-1.64m5.67,0c-.24.16-.43.2-.43.09a.2.2,0,0,0-.2-.19c-.11,0-.2.61-.2,1.46,0,1.77.35,2,.43.25.06-1.34.42-1.81,1.08-1.42.26.15.36.5.4,1.42.07,1.55.43,1.6.43,0,0-2.2,1.43-2.35,1.52-.16.07,1.69.43,1.74.43.06s-.66-2.33-1.6-1.54c-.33.28-.38.28-.71,0s-.61-.38-1.16,0m5.09-.06c-1.32.6-.77,2.89.69,2.89.41,0,1.46-.72,1.07-.73a.45.45,0,0,0-.35.18c-.23.35-1.23.2-1.55-.22-.47-.63-.39-.69.87-.69,1.09,0,1.17,0,1.17-.41a1.25,1.25,0,0,0-1.9-1m3.7.06c-.24.16-.43.2-.43.09a.2.2,0,0,0-.2-.19c-.11,0-.2.61-.2,1.46s.08,1.46.2,1.46.2-.51.2-1.15c0-1.22.2-1.59.88-1.59s.88.37.88,1.59c0,.65.09,1.15.2,1.15s.2-.52.2-1.19c0-1.66-.68-2.31-1.71-1.64m-47.92,1.36c0,1.78.33,2,.43.23.08-1.32,0-1.69-.26-1.69a3.24,3.24,0,0,0-.17,1.46m31.26,0c0,.85.08,1.46.2,1.46s.2-.61.2-1.46-.08-1.46-.2-1.46-.2.61-.2,1.46m40-.73v.64h-8l-.06-.42c-.15-1-.15-1,4.11-.91l4,0v.64m-67.16-.33c.54.51.28.88-.63.88s-1.18-.16-.77-.7a1,1,0,0,1,1.41-.18m8.92.08c.49.46.25.71-.74.77s-1.21-.21-.61-.77a1,1,0,0,1,1.35,0m9.37,0a1.26,1.26,0,0,1-.74,2.09c-.61,0-.9-.34-.9-1.06,0-1.2.88-1.75,1.65-1m3.72.12a1.2,1.2,0,0,1-.77,2,1.2,1.2,0,0,1,0-2.38,1.08,1.08,0,0,1,.77.41m3.51-.12c.69.65.25,2.09-.64,2.09-.72,0-1-.31-1-1.06,0-1.2.88-1.75,1.65-1m15.9-.07c.54.51.28.88-.63.88s-1.18-.16-.77-.7a1,1,0,0,1,1.41-.18M367.43,39c0,.48-.39.77-1,.77s-.9-.42-.54-.83,1.56-.36,1.56.06M431,40.67v.64h-8l-.06-.42c-.15-1-.15-1,4.11-.91l4,0v.64m-86.54,22.8c.72.32,2,1.62,2,2a.22.22,0,0,0,.2.24c.11,0,.2-.13.2-.28,0-.49,1.85-2.06,2.57-2.18.36-.06,7.16-.09,15.12-.06l14.46.05.64.42a6.49,6.49,0,0,1,1.17,1.08l.54.66,0,95.2c0,94,0,95.21-.33,95.9a4.12,4.12,0,0,1-2.4,1.94c-.35.06-56.49.08-124.75.05l-124.11-.05-.54-.38a7.81,7.81,0,0,1-1.14-1.07l-.6-.69-.06-88.76c0-48.82,0-89,.06-89.37A4.26,4.26,0,0,1,130,75.8q.71-.18,91.33-.19h90.61V70.75c0-5.79.15-6.27,2.25-7.29.91-.44,29.31-.43,30.31,0m5.21.63c-1.91.52-2.21,1.48-2.21,7.07v4.44h33.24l-.06-4.8c-.09-7.55,1.68-6.81-16.28-6.85-8.26,0-14.33,0-14.69.14m-60.62,4.65.72,1.61c.11.26.31,0,.85-1.28,1.1-2.54,1.54-2.43,1.54.39,0,2,0,2.12-.39,2.12s-.39-.12-.4-1.23V69.12l-.55,1.19c-.75,1.63-1.08,1.6-1.87-.17l-.6-1.36-.06,1.4c0,1.08-.12,1.4-.34,1.4s-.28-.38-.28-2.12c0-2.67.42-2.89,1.39-.72m-5.68,1a4.86,4.86,0,0,1-.16,1.78,27.29,27.29,0,0,1-3-1.8,21.53,21.53,0,0,1,3-1.82,5.79,5.79,0,0,1,.15,1.83m25.17-.93a8.74,8.74,0,0,1,1.41.92,26.56,26.56,0,0,1-3,1.8,5,5,0,0,1-.16-1.8A5,5,0,0,1,307,68c.09,0,.79.43,1.56.88m59.63.13v.85l.45-.4c.81-.71,1.24-.47.49.28l-.43.42.56.55c.53.51.54.55.15.55a1.33,1.33,0,0,1-.82-.48l-.41-.48v.48c0,.31-.11.48-.29.48s-.29-.29-.29-1.55.06-1.55.29-1.55.29.22.29.86m-72.93-.26c.42.31.33,2.91-.1,2.85a3,3,0,0,0-.9.09c-1.13.28-2-.87-1.19-1.61a1.85,1.85,0,0,1,1.09-.29c.64,0,.77-.06.72-.32-.08-.41-.67-.51-1.26-.22s-.83.1-.54-.34a1.76,1.76,0,0,1,2.17-.18m38.35,1c0,.85.08,1.46.2,1.46s.2-.61.2-1.46-.08-1.46-.2-1.46-.2.61-.2,1.46m25.69-.59c.29,1.07.39,1.07.67,0s.72-1.19,1-.09c.21.8.56,1.28.57.79s.43-1.61.71-1.61.26.1.18.3-.26.83-.44,1.47c-.39,1.44-.8,1.49-1.22.14l-.29-.91-.29,1q-.58,2-1.24-.24a9.83,9.83,0,0,1-.34-1.43c0-.61.46-.2.66.56m-62.3.32a2.86,2.86,0,0,0,.46,1,2.86,2.86,0,0,0,.46-1c.28-.82,1.1-1.53,1.1-1a41.14,41.14,0,0,1-1.69,4c-.44.38-1,.39-1,0,0-.21.12-.38.27-.38.52,0,.5-.56-.08-2-.69-1.75-.68-1.63-.2-1.63.29,0,.46.24.72,1m26.29.41,0,1.42.12-1.19.12-1.19.36.79c.2.43.4.75.44.72a4.83,4.83,0,0,0-.93-2,3.1,3.1,0,0,0-.14,1.42m2.4-1.21a.23.23,0,0,0,.07.32,2.46,2.46,0,0,1,.28,1.21c.07,1,.07,1,.11-.32s-.13-1.73-.46-1.21m6.57.21a.31.31,0,0,1-.26.32c-.18,0-.19,0,0,.14a1.61,1.61,0,0,1,.29,1c0,.65.14.83.45.87s.36,0,0-.14-.49-1.64-.1-1.65c.17,0,.18,0,0-.14a1,1,0,0,1-.33-.41c-.09-.22-.11-.21-.13,0m32.19.36c.56.52.28,1.06-.54,1.06-.63,0-.75.06-.66.29s.28.26.77.17c.78-.14.9.19.17.45a1.14,1.14,0,0,1-1.36-1.79,1.23,1.23,0,0,1,1.61-.19m2.47.07c.6.56.39,1-.49,1-.55,0-.77.07-.71.23s.37.21.85.18l.76,0-.47.37a1,1,0,0,1-.88.26,1.15,1.15,0,0,1,.17-2.27,1.29,1.29,0,0,1,.77.29m-41.81.7c-.19.46-.42.79-.51.73s-.17,0-.17.09a.2.2,0,0,0,.2.19,3.57,3.57,0,0,0,.9-1.78s-.23.3-.42.75m2.1-.59a1,1,0,1,0,.65-.22,1.09,1.09,0,0,0-.65.22m2.33.8,0,1.09.14-.92a2,2,0,0,0,0-1.09c-.1-.1-.16.29-.14.92m1-.85c.41.11.51.26.6,1l.12.91,0-.76c0-1.06-.11-1.34-.72-1.32l-.52,0,.49.13m4.1,0c.41.11.51.28.61,1l.12.91,0-1c0-1,0-1-.61-1s-.55,0-.1.1m-6.15.74c0,.75-.48,1.13-1,.76a1.22,1.22,0,0,1-.17-1.36.71.71,0,0,1,1.13.6m34.88-.44c-.21.24-.17.28.28.28s.5-.09.45-.22c-.12-.34-.46-.37-.73-.06m2.52,0c-.19.22-.15.26.28.26s.69-.26.23-.43a.53.53,0,0,0-.51.16m-72.16.75c-.28.27-.1.61.32.61s.92-.3.92-.59-1.05-.2-1.24,0m-163.07,6.1a3.38,3.38,0,0,0-2.18,2.12c-.1.4-.18,7.82-.18,16.77v16.05H177.5V76.35l-23.11,0c-12.71,0-23.4.08-23.77.16m47.65,17.38v17.56h50V76.35h-50V93.91m50.8,0v17.56h50V76.35h-50V93.91m50.8,0v17.56h50V76.35h-50V93.91m50.8,0v17.56h50V76.35h-50V93.91M260.15,83.3c0,1.83,0,2.19-.29,2.19s-.29-.08-.29-.19-.21-.06-.47.1c-1.28.79-2.58-.87-1.85-2.36a1.37,1.37,0,0,1,1.81-.56l.51.25v-.81c0-.6.08-.81.29-.81s.29.37.29,2.2M304.32,82c0,.53.07.78.17.63.23-.34,1.36-.33,1.72,0,.54.51.61,2.88.09,2.88-.37,0-.42-.1-.42-1,0-1.27-.13-1.57-.7-1.57s-.87.49-.87,1.63c0,.7-.07.93-.29.93s-.29-.37-.29-2.19,0-2.2.29-2.2.29.22.3.87m55.1-.5c0,.24-.13.37-.39.37s-.39-.12-.39-.37.13-.37.39-.37.39.12.39.37M148.19,82.75c.82,1.91.83,1.91,1.59.09,1-2.48,1.53-2.3,1.53.55,0,2,0,2.1-.38,2.1s-.39-.15-.44-1.23L150.44,83l-.52,1.19c-.74,1.7-1.07,1.68-1.87-.13l-.63-1.42v1.42c0,1.13-.07,1.42-.3,1.42s-.29-.36-.29-2.1c0-2.75.38-2.93,1.37-.64m53.73-1.19c0,.19-.21.28-.68.28h-.68v1.83c0,1.71,0,1.83-.39,1.83s-.39-.12-.39-1.83V81.84H199c-.73,0-1-.14-.65-.43s3.58-.13,3.58.15m46.9.5.43,1.51.21.73.43-1.46c.59-2,1-2.11,1.54-.32s.6,1.87,1,.23c.29-1.18.43-1.47.72-1.47.45,0,.46-.09-.2,2.2-.72,2.5-1.15,2.7-1.69.79-.38-1.33-.67-2-.68-1.54a11.33,11.33,0,0,1-.41,1.51c-.6,1.89-1,1.76-1.64-.6-.29-1-.58-2-.64-2.1s0-.25.3-.25.45.18.62.78m54.31-.5c0,.19-.21.28-.68.28h-.68v1.83c0,1.71,0,1.83-.39,1.83s-.39-.12-.39-1.83V81.84h-.68c-.48,0-.68-.08-.68-.28s.33-.27,1.76-.27,1.76.05,1.76.27m52.71,0c.06.16-.22.23-1,.23h-1.09v1.28h1c.85,0,1,0,1,.37s-.13.37-1,.37h-1v.82c0,.7-.06.82-.39.82s-.39-.12-.39-2.11V81.27l1.4.05c.9,0,1.43.13,1.48.28m-221.55.16c.37.24.44.41.35.91-.06.34,0,.66.08.72.66.38-.19,1.55-1.13,1.55-.45,0-1.23-.58-1.23-.92s.38-.22.72.1,1.13.27,1.13-.19c0-.26-.15-.38-.54-.42-.64-.07-.72-.53-.1-.62a.6.6,0,0,0,.5-.38c.09-.45-.54-.64-.84-.26s-.68.4-.68.08a.83.83,0,0,1,.58-.74,1,1,0,0,1,1.15.17m3.06.15c.93.87.39,3-.76,3-.74,0-1.2-.67-1.2-1.74,0-1.57,1-2.21,2-1.29m98.58-.11c.56.43.43,1-.42,1.95l-.6.64h.7c.39,0,.7.08.7.18s-.52.18-1.17.18c-1.4,0-1.4,0-.29-1.14s1-2.3-.07-1.36c-.46.39-.83.38-.68,0a1.11,1.11,0,0,1,1.83-.44m50.77,0c.37.24.44.41.35.91-.06.34,0,.66.08.72.66.38-.19,1.55-1.13,1.55-.45,0-1.23-.58-1.23-.92s.38-.22.72.1,1.13.27,1.13-.19c0-.26-.15-.38-.54-.42-.64-.07-.72-.53-.1-.62a.6.6,0,0,0,.5-.38c.09-.45-.54-.64-.84-.26s-.68.4-.68.08a.83.83,0,0,1,.58-.74,1,1,0,0,1,1.15.17M184.54,83.21c0,.91-.08,1.55-.2,1.55s-.2-.55-.2-1.28V82.19l-.49.3c-.66.4-.71-.13-.05-.56.83-.54.93-.4.93,1.27m153.19-.62c0,.68.09,1,.34,1.18s.33.24,0,.36a.49.49,0,0,0-.34.38.28.28,0,0,1-.29.26.29.29,0,0,1-.29-.28c0-.2-.22-.27-.78-.27-1,0-1-.24-.1-1.56s1.47-1.38,1.47-.06m-201.64-.22c-.42.73-.11,2,.48,2A.68.68,0,0,0,137,84c.42-.73.11-2-.48-2a.68.68,0,0,0-.48.35m18,0c.78,0,1.29,1.88.7,2.6a1.77,1.77,0,0,1-2.67-.05c-.69-1.2.37-3,1.54-2.63a1.79,1.79,0,0,0,.43.08m4.08.26c.46.52.49,2.85,0,2.85s-.42-.1-.42-1c0-1.28-.13-1.57-.71-1.57s-.85.58-.85,1.75c0,.6-.08.81-.29.81s-.29-.29-.29-1.55.06-1.55.29-1.55a.27.27,0,0,1,.3.23c0,.16,0,.17.15,0a1.41,1.41,0,0,1,1.79,0m49.69.08a1.94,1.94,0,0,1,.46.9l.13.59h-1.2c-1.2,0-1.4.11-1,.51a1.13,1.13,0,0,0,1.32,0c.44-.26.69-.11.52.31-.33.82-2.21.68-2.64-.19-.84-1.72,1-3.35,2.36-2.12m48.58.32c.48,1,.33,1.17-.95,1.17a2.47,2.47,0,0,0-1.17.15c0,.48,1.2.81,1.47.4.15-.22.88-.25.88,0,0,.79-1.88,1.1-2.59.43a1.93,1.93,0,0,1-.07-2.38,1.6,1.6,0,0,1,2.44.26m101.83-.48a.33.33,0,0,1-.35.37c-.6,0-.82.4-.82,1.5,0,.94,0,1.06-.39,1.06s-.39-.12-.39-1.55V82.4l.69,0a1.82,1.82,0,0,0,.81-.1c.25-.23.45-.12.45.24m-155.73.81c0,1.26.13,1.57.67,1.57s.9-.36.9-1.5c0-.82.07-1.06.29-1.06s.29.3.29,1.57,0,1.56-.34,1.52a3,3,0,0,0-.9.09c-1.09.27-1.49-.22-1.49-1.81,0-1.09.06-1.37.29-1.37s.29.23.29,1M308,83.67c0,1.21,0,1.28.45,1.28.7,0,.92-.35.92-1.5,0-.94,0-1.06.39-1.06s.39.12.39,1.56V85.5l-.54,0a4.27,4.27,0,0,0-1.06.1c-.91.23-1.34-.38-1.34-1.91,0-1.16,0-1.28.39-1.28s.39.12.39,1.28m28.71-.78-.34.64c0,.08.11.14.34.14s.41-.11.41-.64c0-.77-.05-.79-.4-.14m22.68,1.05c0,1.43,0,1.55-.39,1.55s-.39-.12-.39-1.55,0-1.55.39-1.55.39.12.39,1.55m-206.54-.73c-.54.61-.23,1.73.47,1.73s.91-.34.91-1c0-.92-.82-1.35-1.37-.73m53.39-.06c-.4.38-.26.51.55.51.43,0,.78-.07.78-.15,0-.25-.45-.59-.78-.59a.93.93,0,0,0-.55.22m48.26,0c-.4.38-.26.51.55.51.43,0,.78-.07.78-.15,0-.25-.45-.59-.78-.59a.93.93,0,0,0-.55.22m3.52,0a1.4,1.4,0,0,0,0,1.61.82.82,0,0,0,1.29-.39c.27-.94-.7-1.82-1.34-1.22M163.86,88c.51.43.54,5.43,0,5.95s-22.19.52-22.77,0-.54-5.43,0-5.95,22.19-.52,22.77,0m-35.6,42.14v17.93H177.5V112.21H128.26v17.93m50,0v17.93h50V112.21h-50v17.93m50.8,0v17.93h50V112.21h-50v17.93m50.8,0v17.93h50V112.21h-50v17.93m50.8,0v17.93h50V112.21h-50v17.93M185.21,118.31c.28.19.33.39.25.89a1.18,1.18,0,0,0,.08.83c.64.6-.47,1.67-1.47,1.44-.65-.15-1.08-.91-.78-1.37a1.47,1.47,0,0,0,.12-.88,1.1,1.1,0,0,1,1.8-.92m50.82.2a1.47,1.47,0,0,1,.48,1.29c0,1.42-1.25,2.22-2.16,1.37-.57-.53-.29-.8.43-.41s.6.31.87,0c.39-.5.35-.7-.1-.47a1.16,1.16,0,0,1-1.48-.55,1.17,1.17,0,0,1,.54-1.46,1.06,1.06,0,0,1,1.42.26m53,0a2,2,0,0,1-.22,2.85c-1.11.55-2.06-.76-1.64-2.24.32-1.1,1.07-1.35,1.86-.62m-154.27-.09a7.29,7.29,0,0,1-1.8,2.93c-.3,0-.26-.17.34-1.28.84-1.56.85-1.47-.09-1.47-.43,0-.78-.08-.78-.18s.52-.18,1.17-.18,1.17.08,1.17.18m151.43,1.37c0,1.26-.06,1.55-.29,1.55s-.29-.25-.29-1.2c0-1.14,0-1.19-.39-1s-.54-.1-.07-.58c.76-.79,1-.46,1,1.22m50.8,0c0,1.26-.06,1.55-.29,1.55s-.29-.25-.29-1.2c0-1.14,0-1.19-.39-1s-.54-.1-.07-.58c.76-.79,1-.46,1,1.22m2.35,0c0,1.26-.06,1.55-.29,1.55s-.29-.27-.29-1.31c0-1.26,0-1.3-.36-1s-.62.38-.62,0,.74-.83,1.22-.83c.31,0,.35.19.35,1.55M184,118.89c-.14.35.25.65.66.5s.23-.67-.19-.75a.44.44,0,0,0-.47.25m50.74,0c-.53.59.35,1.31.93.76.25-.23.27-.38.11-.62a.63.63,0,0,0-1-.14m53,.29c-.25.66-.08,1.63.3,1.77s.85-.32.85-1.12c0-1.22-.77-1.65-1.15-.65m-103.88,1.09c-.2.3.3.76.76.7.63-.08.54-.77-.11-.84a.81.81,0,0,0-.65.15m-55.59,46.47v17.93H177.5V148.8H128.26v17.93m50,0v17.93h50V148.8h-50v17.93m50.8,0v17.93h50V148.8h-50v17.93m50.8,0v17.93h50V148.8h-50v17.93m50.8,0v17.93h50V148.8h-50v17.93m-92.47-11.79c.46.3.59.81.21.81a.81.81,0,0,1-.48-.32c-.2-.25-.33-.28-.6-.12-.58.33-.53.6.1.59a1.07,1.07,0,0,1,.7,2c-1.26.78-2.34-.49-1.84-2.18a1.18,1.18,0,0,1,1.9-.76m101.65.08c.44.41.46.52.2.91a.38.38,0,0,0,0,.49,1.09,1.09,0,0,1-.43,1.5c-1.12.58-2.32-.41-1.65-1.36.18-.26.22-.47.1-.53-.34-.2-.21-.79.24-1.09a1.09,1.09,0,0,1,1.52.08m-206.14,1.37c0,1.26-.06,1.55-.29,1.55s-.29-.25-.29-1.2c0-1.14,0-1.19-.39-1s-.54-.09-.07-.58c.76-.79,1-.46,1,1.22m2.93-.55c0,.77.07,1,.29,1a.27.27,0,1,1,0,.55.29.29,0,0,0-.29.28.29.29,0,0,1-.59,0c0-.2-.22-.28-.78-.28-1,0-1-.17-.08-1.51s1.45-1.44,1.45,0m47.87.55c0,1.26-.05,1.55-.29,1.55s-.29-.25-.29-1.2c0-1.14,0-1.19-.39-1s-.54-.09-.07-.58c.76-.79,1-.46,1,1.22m3.13-1.37c0,.1-.35.18-.78.18-.65,0-.78.06-.78.37s.13.37.57.37a1,1,0,0,1,.79,1.83c-.67.62-2,.32-2-.47,0-.35.39-.33.68,0a.59.59,0,0,0,1-.22c.19-.46-.39-.89-.87-.65-.79.4-1,0-.69-1.22.13-.43,2-.65,2-.23m47.68,1.37c0,1.26-.06,1.55-.29,1.55s-.29-.25-.29-1.2c0-1.14,0-1.19-.39-1s-.54-.09-.07-.58c.76-.79,1-.46,1,1.22m50.8,0c0,1.26-.06,1.55-.29,1.55s-.29-.25-.29-1.2c0-1.14,0-1.19-.39-1s-.54-.09-.07-.58c.76-.79,1-.46,1,1.22m3.13-1.38a9.57,9.57,0,0,1-1.7,2.93c-.35,0-.34,0,.44-1.47l.69-1.28h-.88c-.48,0-.88-.08-.88-.18s.52-.18,1.17-.18,1.17.08,1.17.18m47.68,1.38c0,1.26-.06,1.55-.29,1.55s-.29-.25-.29-1.2c0-1.14,0-1.19-.39-1s-.54-.09-.07-.58c.76-.79,1-.46,1,1.22m1.69-1.07a.4.4,0,0,0,.2.69c.48.17,1.05-.39.65-.63s-.67-.23-.85-.06m-203,1c-.29.52-.28.55.09.55s.4-.12.4-.55,0-.55-.09-.55a1.64,1.64,0,0,0-.4.55m101.52.27c-.38.42-.17.92.39.92.36,0,.5-.11.55-.44.1-.65-.51-1-.94-.49m101.34.36c-.14.33.33.7.79.62a.58.58,0,0,0,.41-.47c.07-.48-1-.62-1.2-.15M128.26,203.31v17.93H177.5V185.39H128.26v17.93m50,0v17.93h50V185.39h-50v17.93m50.8,0v17.93h50V185.39h-50v17.93m50.8,0v17.93h50V185.39h-50v17.93m50.8,0v17.93h50V185.39h-50v17.93M134.33,191.57c.56.42.43,1-.42,1.95l-.6.64h.7c.39,0,.7.08.7.18s-.52.18-1.17.18c-1.4,0-1.4,0-.29-1.14s1-2.3-.07-1.36c-.46.39-.83.38-.68,0a1.11,1.11,0,0,1,1.83-.44m50.8,0c.56.42.43,1-.42,1.95l-.6.64h.7c.39,0,.7.08.7.18s-.52.18-1.17.18c-1.4,0-1.4,0-.29-1.14s1-2.3-.07-1.36c-.46.39-.83.38-.68,0a1.11,1.11,0,0,1,1.83-.44m3,.09a1.32,1.32,0,0,1-.43,1.68c-.76.68-.74.82.1.82.38,0,.68.08.68.18s-.52.18-1.17.18c-1.39,0-1.41-.06-.39-1.15a3.18,3.18,0,0,0,.78-1.13.48.48,0,0,0-.88-.22c-.29.37-.68.4-.68,0,0-.7,1.58-1,2-.41m47.84-.09c.56.42.43,1-.42,1.95l-.6.64h.7c.39,0,.7.08.7.18s-.52.18-1.17.18c-1.4,0-1.4,0-.29-1.14s1-2.3-.07-1.36c-.46.39-.83.38-.68,0a1.11,1.11,0,0,1,1.83-.44m2.62-.22a.83.83,0,0,1,.49,1.19c-.17.29-.17.42,0,.52.42.24.14,1.16-.44,1.46a1.21,1.21,0,0,1-1.67-.6c-.08-.4.47-.42.63,0s1,.26,1-.2c0-.26-.15-.38-.54-.42-.6-.06-.75-.58-.17-.58s.88-.45.51-.73-.36-.18-.65.07-.81.39-.81,0c0-.53,1-1,1.65-.72m48.18.22c.56.42.43,1-.42,1.95l-.6.64h.7c.39,0,.7.08.7.18s-.52.18-1.17.18c-1.4,0-1.4,0-.29-1.14s1-2.3-.07-1.36c-.46.39-.83.38-.68,0a1.11,1.11,0,0,1,1.83-.44m50.8,0c.56.42.43,1-.42,1.95l-.6.64h.7c.39,0,.7.08.7.18s-.52.18-1.17.18c-1.4,0-1.4,0-.29-1.14s1-2.3-.07-1.36c-.46.39-.83.38-.68,0a1.11,1.11,0,0,1,1.83-.44M136.66,193c0,1.26-.06,1.55-.29,1.55s-.29-.25-.29-1.19c0-1.09-.18-1.47-.49-1-.18.27-.49.22-.49-.07s.75-.82,1.22-.84c.3,0,.34.18.34,1.55m153-.55c0,.77.07,1,.29,1a.27.27,0,1,1,0,.55.28.28,0,0,0-.29.27.29.29,0,0,1-.59,0c0-.2-.22-.27-.78-.27-1,0-1-.17-.08-1.51s1.45-1.44,1.45,0m51-.83c0,.09-.33.2-.73.23-1,.08-1.18.7-.19.7.83,0,1.16.34,1.08,1.13-.12,1.17-2,1.41-2.27.29-.08-.4.47-.42.63,0s1,.26,1.06-.21-.39-.87-1-.6-.76.17-.6-.83l.14-.84h1c.53,0,1,.08,1,.17m-52.07,1.29c-.29.52-.28.55.09.55s.4-.12.4-.55,0-.55-.09-.55a1.65,1.65,0,0,0-.4.55M128.27,238.4c0,17.54,0,17.52,1,18.47s.7,1,25.2,1h23V222H128.26V238.4m50,1.51v17.93h50V222h-50V239.9m50.8,0v17.93h50V222h-50V239.9m50.8,0v17.93h50V222h-50V239.9m50.8,0v17.93h23.4c24.92,0,24.56,0,25.59-1s1-.93,1-18.47V222h-50V239.9M134.33,228.16c.56.42.43,1-.42,1.95l-.6.64h.7c.39,0,.7.08.7.18s-.52.18-1.17.18c-1.4,0-1.4,0-.29-1.14s1-2.3-.07-1.36c-.46.39-.83.38-.68,0a1.11,1.11,0,0,1,1.83-.44m2.88-.05c.45.29.58.89.24,1.09-.12.07-.07.29.13.57.66.95-.56,1.92-1.68,1.33a.9.9,0,0,1-.41-1.35c.16-.19.17-.35,0-.63-.52-.91.73-1.65,1.71-1m47.92.05c.56.42.43,1-.42,1.95l-.6.64h.7c.39,0,.7.08.7.18s-.52.18-1.17.18c-1.4,0-1.4,0-.29-1.14s1-2.3-.07-1.36c-.46.39-.83.38-.68,0a1.11,1.11,0,0,1,1.83-.44m2.71-.16c1.23.62.78,3.3-.55,3.3-.52,0-1.29-.62-1.11-.9s.24-.15.51.08.85.26,1.15-.27c.2-.34.17-.36-.25-.21a1,1,0,0,1-1.46-.94,1.11,1.11,0,0,1,1.71-1.07m48.06.12c.37.24.44.41.35.91-.06.34,0,.66.08.72.66.38-.19,1.55-1.13,1.55-.45,0-1.23-.58-1.23-.92s.38-.22.72.1,1.13.27,1.13-.19c0-.26-.15-.38-.54-.42-.64-.07-.72-.53-.1-.62a.59.59,0,0,0,.5-.38c.09-.45-.54-.64-.84-.26s-.68.4-.68.08a.83.83,0,0,1,.58-.74,1,1,0,0,1,1.15.16m3.06.15c.93.87.39,3-.76,3-.74,0-1.2-.67-1.2-1.74,0-1.57,1-2.21,2-1.29m47.74-.15c.37.24.44.41.35.91-.06.34,0,.66.08.72.66.38-.19,1.55-1.13,1.55-.45,0-1.23-.58-1.23-.92s.38-.22.72.1,1.13.27,1.13-.19c0-.26-.15-.38-.54-.42-.64-.07-.72-.53-.1-.62a.59.59,0,0,0,.5-.38c.09-.45-.54-.64-.84-.26s-.68.4-.68.08a.83.83,0,0,1,.58-.74,1,1,0,0,1,1.15.16m2.37,1.44c0,1.26-.05,1.55-.29,1.55s-.29-.25-.29-1.2c0-1.14,0-1.19-.39-1s-.54-.09-.07-.58c.76-.79,1-.46,1,1.22m47.87,0c0,.91-.08,1.55-.2,1.55s-.2-.55-.2-1.28v-1.28l-.49.3c-.66.4-.71-.13-.05-.56.83-.54.93-.4.93,1.27m-200.84-.95c-.18.2-.17.31,0,.47s.94.06.87-.32a.52.52,0,0,0-.91-.15m50.71-.12a1,1,0,0,0,.07,1.07.69.69,0,0,0,1-.54.67.67,0,0,0-1-.53m50.87.23c-.42.73-.11,2,.48,2a.68.68,0,0,0,.48-.35c.42-.73.11-2-.48-2a.68.68,0,0,0-.48.35M136,230.11c-.15.36.07.65.48.65s.8-.35.68-.66-1-.32-1.16,0m74,3.15c.51.43.54,5.43,0,5.95s-12.81.52-13.39,0-.54-5.43,0-5.95,12.81-.52,13.39,0m50.8,0c.51.43.54,5.43,0,5.95s-12.81.52-13.39,0-.54-5.43,0-5.95,12.81-.52,13.39,0m168.29,15.14a3.67,3.67,0,0,1,1.3,4.8l-.37.57.52,1a6.66,6.66,0,0,1-6,9.67c-7.44,0-9.38-10.42-2.39-12.81,1.06-.36,1.21-.47,1.21-.89,0-2.14,3.5-3.56,5.75-2.33m-2.88,1.7c-.32.3-.14,1.57.21,1.44,1-.37,1.86.37,1.22,1.09-.32.36-.76.35-1.2,0s-.5-.09-.12.27a1.15,1.15,0,0,0,1.41-.07,1,1,0,0,0-1-1.55c-.37.18-.4.15-.4-.35s0-.56.78-.56c.43,0,.78-.08.78-.18s-1.42-.26-1.63-.06m-4,2c-5.14,1.7-5,9.87.2,11.48,5.62,1.75,10.65-4.29,7.5-9l-.27-.41-.63.36c-2,1.16-5.62-.34-5.62-2.35,0-.46,0-.46-1.17-.08m5.43,4.08c.06.5-2.37,2.37-3.09,2.37s-3.13-1.85-3.13-2.29c0-.63.11-.65,3.21-.6l2.94.05.06.47m-5,1.61c1.84,1.3,1.74,1.29,3.36.23,1.79-1.16,1.66-1.2,1.6.48l-.06,1.42h-6.06l-.06-1.42c-.07-1.64-.09-1.63,1.21-.72" style="fill:#fcfbfd"/></g></g></g></svg>