<svg xmlns="http://www.w3.org/2000/svg" xmlns:xlink="http://www.w3.org/1999/xlink" viewBox="0 0 550.99 437.83"><title>Asset 10</title><g id="Layer_2" data-name="Layer 2"><g id="Layer_6" data-name="Layer 6"><rect x="47.97" width="411.07" height="313.92" rx="28.56" ry="28.56" style="fill:#a3a3a3"/><rect x="52.22" y="5.46" width="402.57" height="302.99" rx="27.77" ry="27.77"/><rect x="71.04" y="26.11" width="366.14" height="267.17" style="fill:#fcfbfd"/><circle cx="254.42" cy="17" r="4.25" style="fill:#4c4c4c"/><rect y="303.6" width="503.98" height="20.04" rx="6.83" ry="6.83" style="fill:#4c4c4c"/><path d="M217.94,303.6s41.77,10.32,78.9,0Z" style="fill:#3a3a3a"/><image width="2004" height="1336" transform="translate(71.99 26.32) scale(0.18)" xlink:href="Screen Shot 2018-04-29 at 5.40.48 PM.png"/><rect x="348.78" y="235.62" width="264.03" height="140.39" rx="15.31" ry="15.31" transform="translate(174.97 786.61) rotate(-90)" style="fill:#a3a3a3"/><rect x="351.51" y="238.07" width="258.57" height="135.5" rx="14.88" ry="14.88" transform="translate(174.97 786.61) rotate(-90)"/><rect x="374.14" y="238.63" width="214.89" height="120.33" transform="translate(182.79 780.39) rotate(-90)" style="fill:#fcfbfd"/><ellipse cx="480.73" cy="182.77" rx="2.51" ry="2.73" style="fill:#4c4c4c"/><ellipse cx="480.78" cy="420.09" rx="5.58" ry="6.43" style="fill:#282828"/><rect x="477.91" y="416.77" width="5.75" height="6.63" rx="2.01" ry="2.01" style="fill:#333"/><image width="646" height="1170" transform="translate(422.99 193.32) scale(0.18)" xlink:href="Screen Shot 2018-04-29 at 5.39.25 PM.png"/></g></g></svg>