<svg xmlns="http://www.w3.org/2000/svg" viewBox="0 0 533.38 424.83"><title>Asset 17</title><g id="Layer_2" data-name="Layer 2"><g id="mobile"><rect x="47.97" width="411.07" height="313.92" rx="28.56" ry="28.56" style="fill:#a3a3a3"/><rect x="52.22" y="5.46" width="402.57" height="302.99" rx="27.77" ry="27.77"/><rect x="71.04" y="26.11" width="366.14" height="267.17" style="fill:#fcfbfd"/><circle cx="254.42" cy="17" r="4.25" style="fill:#4c4c4c"/><rect y="303.6" width="503.98" height="20.04" rx="6.83" ry="6.83" style="fill:#4c4c4c"/><path d="M217.94,303.6s41.77,10.32,78.9,0Z" style="fill:#3a3a3a"/><rect x="322.97" y="214.43" width="264.03" height="156.78" rx="16.17" ry="16.17" transform="translate(162.17 747.81) rotate(-90)" style="fill:#a3a3a3"/><rect x="325.7" y="217.16" width="258.57" height="151.32" rx="15.73" ry="15.73" transform="translate(162.17 747.81) rotate(-90)"/><rect x="348.43" y="218.61" width="214.89" height="134.38" transform="translate(170.08 741.68) rotate(-90)" style="fill:#fcfbfd"/><ellipse cx="454.91" cy="169.77" rx="2.81" ry="2.73" style="fill:#4c4c4c"/><ellipse cx="454.98" cy="407.09" rx="6.23" ry="6.43" style="fill:#282828"/><rect x="451.77" y="403.77" width="6.42" height="6.63" rx="2.13" ry="2.13" style="fill:#333"/></g></g></svg>