<svg xmlns="http://www.w3.org/2000/svg" viewBox="0 0 680 572"><title>Asset 10</title><g id="Layer_2" data-name="Layer 2"><g id="tree"><path d="M367.66,572s1.19-110.41,7.16-118.63c0,0-83.56-43.46-119.37-36.41L217.25,377l-29.84-54S89.53,256,0,271.32c0,0,94.3-18.79,195.76,39.93,0,0,35.81-44.63,32.23-89.26,0,0,11.94,74-20.29,92.79,0,0,22.68,65.77,54.91,82.22,0,0,93.11,14.09,112.21,29.36,0,0-2.39-103.36,19.1-146.82,0,0-76.4-31.71-90.72-22.32l-22.68-41.11-39.39-15.27-38.2-77.52L249.48,195l37,14.09,23.87,38.76,23.87,2.35s11.94-35.24-1.19-52.85-10.74-37.59-10.74-37.59,21.49-25.84,7.16-47c0,0,17.91,10.57,4.77,47,0,0-10.74,10.57,10.74,41.11,0,0,8.36,27,4.77,55.2,0,0,39.39,4.7,47.75,16.44,0,0,8.36-45.81,15.52-50.51L396.3,159.74l-46.55-28.19L324.68,78.69l29.84,44.63s19.1,21.14,38.2,24.67l-7.16-28.19L384.37,74,382,0l11.94,104.53,8.36,25.84,20.29-10.57L405.85,41.11l16.71,34.06,8.36,41.11s15.52-24.67,21.49-25.84,33.42-34.06,33.42-44.63c0,0-10.74,36.41-29.84,52.85s-19.1,25.84-19.1,25.84L407,140.94,425,195s32.23-17.62,47.75-12.92l-1.19-16.44,9.55-14.09-9.55-21.14,16.71,21.14-8.36,14.09,1.19,16.44L499,183.23l10.74-18.79,34.62-12.92,48.94-54L549.1,153.86l-34.62,15.27-10.74,20s-54.91-3.52-74,18.79c0,0-1.19,56.38-19.1,110.41l23.87-4.7s23.87-36.41,28.65-35.24c0,0-3.58-50.51-7.16-52.85,0,0,11.94,24.67,13.13,50.51,0,0,48.94-11.75,53.72-52.85,0,0,3.58,36.41-50.13,62.25l-23.87,38.76L407,338.27v55.2l81.17-15.27,16.71-51.68,46.55-11.75,62.07-68.12L624.3,195l-2.39,52.85L561,319.47l-46.55,21.14L510.9,370s8.36-7,32.23-1.17,44.17,9.4,44.17,9.4l40.59-31.71,6-24.67,2.39,24.67L594.46,382.9s-63.27-9.4-83.56,4.7-102.66,30.54-102.66,30.54S392.72,533.24,407,570.83Z" style="fill:#2d2a20"/><path d="M30.16,271.25s-19,6.07-13.5,12.69,11.29,1.18,11.29,1.18S30.84,282.41,30.16,271.25Z" style="fill:#cdbcce"/><path d="M31.33,271.09s-3.16,19.41,5.33,17.61,6.21-9.35,6.21-9.35S41.73,275.57,31.33,271.09Z" style="fill:#cdbcce"/><path d="M31,269.94s18.14,8.24,18.67-.3-7.47-8.41-7.47-8.41S38.24,261.29,31,269.94Z" style="fill:#cdbcce"/><path d="M29.63,270.6s-19.2,5.45-18.41-3.07,8.68-7.2,8.68-7.2S23.85,261,29.63,270.6Z" style="fill:#cdbcce"/><path d="M30.06,269.82s14.76-13.25,7-17-10.78,3.51-10.78,3.51S24.75,259.94,30.06,269.82Z" style="fill:#cdbcce"/><ellipse cx="30.44" cy="270.63" rx="3.3" ry="3.25" style="fill:#5a387c"/><path d="M81.49,281.83s-19,6.07-13.5,12.69,11.29,1.18,11.29,1.18S82.17,293,81.49,281.83Z" style="fill:#cdbcce"/><path d="M82.66,281.66S79.49,301.08,88,299.27s6.21-9.35,6.21-9.35S93.06,286.14,82.66,281.66Z" style="fill:#cdbcce"/><path d="M82.37,280.51s18.14,8.24,18.67-.3-7.47-8.41-7.47-8.41S89.56,271.87,82.37,280.51Z" style="fill:#cdbcce"/><path d="M81,281.17s-19.2,5.45-18.41-3.07,8.68-7.2,8.68-7.2S75.18,271.56,81,281.17Z" style="fill:#cdbcce"/><path d="M81.39,280.39s14.76-13.25,7-17-10.78,3.51-10.78,3.51S76.08,270.51,81.39,280.39Z" style="fill:#cdbcce"/><ellipse cx="81.77" cy="281.2" rx="3.3" ry="3.25" style="fill:#5a387c"/><path d="M148.34,312.36s-19,6.07-13.5,12.69,11.29,1.18,11.29,1.18S149,323.52,148.34,312.36Z" style="fill:#cdbcce"/><path d="M149.5,312.2s-3.16,19.41,5.33,17.61,6.21-9.35,6.21-9.35S159.91,316.68,149.5,312.2Z" style="fill:#cdbcce"/><path d="M149.22,311s18.14,8.24,18.67-.3-7.47-8.41-7.47-8.41S156.41,302.4,149.22,311Z" style="fill:#cdbcce"/><path d="M147.81,311.71s-19.2,5.45-18.41-3.07,8.68-7.2,8.68-7.2S142,302.09,147.81,311.71Z" style="fill:#cdbcce"/><path d="M148.23,310.92s14.76-13.25,7-17-10.78,3.51-10.78,3.51S142.93,301,148.23,310.92Z" style="fill:#cdbcce"/><ellipse cx="148.62" cy="311.74" rx="3.3" ry="3.25" style="fill:#5a387c"/><path d="M125.66,270.08s-19,6.07-13.5,12.69S123.44,284,123.44,284,126.34,281.23,125.66,270.08Z" style="fill:#cdbcce"/><path d="M126.82,269.92s-3.16,19.41,5.33,17.61,6.21-9.35,6.21-9.35S137.23,274.4,126.82,269.92Z" style="fill:#cdbcce"/><path d="M126.54,268.76s18.14,8.24,18.67-.3-7.47-8.41-7.47-8.41S133.73,260.12,126.54,268.76Z" style="fill:#cdbcce"/><path d="M125.13,269.43s-19.2,5.45-18.41-3.07,8.68-7.2,8.68-7.2S119.35,259.81,125.13,269.43Z" style="fill:#cdbcce"/><path d="M125.55,268.64s14.76-13.25,7-17-10.78,3.51-10.78,3.51S120.25,258.76,125.55,268.64Z" style="fill:#cdbcce"/><ellipse cx="125.94" cy="269.46" rx="3.3" ry="3.25" style="fill:#5a387c"/><path d="M230.7,243.07s-19,6.07-13.5,12.69,11.29,1.18,11.29,1.18S231.38,254.22,230.7,243.07Z" style="fill:#cdbcce"/><path d="M231.87,242.9s-3.16,19.41,5.33,17.61,6.21-9.35,6.21-9.35S242.27,247.38,231.87,242.9Z" style="fill:#cdbcce"/><path d="M231.58,241.75s18.14,8.24,18.67-.3-7.47-8.41-7.47-8.41S238.77,233.11,231.58,241.75Z" style="fill:#cdbcce"/><path d="M230.17,242.41s-19.2,5.45-18.41-3.07,8.68-7.2,8.68-7.2S224.39,232.8,230.17,242.41Z" style="fill:#cdbcce"/><path d="M230.6,241.63s14.76-13.25,7-17-10.78,3.51-10.78,3.51S225.29,231.75,230.6,241.63Z" style="fill:#cdbcce"/><ellipse cx="230.98" cy="242.44" rx="3.3" ry="3.25" style="fill:#5a387c"/><path d="M233.09,292.4s-19,6.07-13.5,12.69,11.29,1.18,11.29,1.18S233.77,303.55,233.09,292.4Z" style="fill:#cdbcce"/><path d="M234.26,292.23s-3.16,19.41,5.33,17.61,6.21-9.35,6.21-9.35S244.66,296.71,234.26,292.23Z" style="fill:#cdbcce"/><path d="M234,291.08s18.14,8.24,18.67-.3-7.47-8.41-7.47-8.41S241.16,282.44,234,291.08Z" style="fill:#cdbcce"/><path d="M232.56,291.74s-19.2,5.45-18.41-3.07,8.68-7.2,8.68-7.2S226.78,282.13,232.56,291.74Z" style="fill:#cdbcce"/><path d="M233,291s14.76-13.25,7-17-10.78,3.51-10.78,3.51S227.68,281.08,233,291Z" style="fill:#cdbcce"/><ellipse cx="233.37" cy="291.77" rx="3.3" ry="3.25" style="fill:#5a387c"/><path d="M192.5,286.52s-19,6.07-13.5,12.69,11.29,1.18,11.29,1.18S193.18,297.68,192.5,286.52Z" style="fill:#cdbcce"/><path d="M193.67,286.36S190.51,305.77,199,304s6.21-9.35,6.21-9.35S204.07,290.84,193.67,286.36Z" style="fill:#cdbcce"/><path d="M193.38,285.21s18.14,8.24,18.67-.3-7.47-8.41-7.47-8.41S200.58,276.56,193.38,285.21Z" style="fill:#cdbcce"/><path d="M192,285.87s-19.2,5.45-18.41-3.07,8.68-7.2,8.68-7.2S186.19,276.25,192,285.87Z" style="fill:#cdbcce"/><path d="M192.4,285.08s14.76-13.25,7-17-10.78,3.51-10.78,3.51S187.09,275.21,192.4,285.08Z" style="fill:#cdbcce"/><ellipse cx="192.79" cy="285.9" rx="3.3" ry="3.25" style="fill:#5a387c"/><path d="M185.34,354.65s-19,6.07-13.5,12.69,11.29,1.18,11.29,1.18S186,365.8,185.34,354.65Z" style="fill:#cdbcce"/><path d="M186.51,354.48s-3.16,19.41,5.33,17.61,6.21-9.35,6.21-9.35S196.91,359,186.51,354.48Z" style="fill:#cdbcce"/><path d="M186.22,353.33s18.14,8.24,18.67-.3-7.47-8.41-7.47-8.41S193.41,344.69,186.22,353.33Z" style="fill:#cdbcce"/><path d="M184.81,354s-19.2,5.45-18.41-3.07,8.68-7.2,8.68-7.2S179,344.38,184.81,354Z" style="fill:#cdbcce"/><path d="M185.24,353.21s14.76-13.25,7-17-10.78,3.51-10.78,3.51S179.93,343.33,185.24,353.21Z" style="fill:#cdbcce"/><ellipse cx="185.62" cy="354.02" rx="3.3" ry="3.25" style="fill:#5a387c"/><path d="M205.63,126.79s-19,6.07-13.5,12.69,11.29,1.18,11.29,1.18S206.31,137.94,205.63,126.79Z" style="fill:#cdbcce"/><path d="M206.8,126.62s-3.16,19.41,5.33,17.61,6.21-9.35,6.21-9.35S217.2,131.1,206.8,126.62Z" style="fill:#cdbcce"/><path d="M206.51,125.47s18.14,8.24,18.67-.3-7.47-8.41-7.47-8.41S213.71,116.83,206.51,125.47Z" style="fill:#cdbcce"/><path d="M205.1,126.13s-19.2,5.45-18.41-3.07,8.68-7.2,8.68-7.2S199.32,116.52,205.1,126.13Z" style="fill:#cdbcce"/><path d="M205.53,125.35s14.76-13.25,7-17-10.78,3.51-10.78,3.51S200.22,115.47,205.53,125.35Z" style="fill:#cdbcce"/><ellipse cx="205.92" cy="126.16" rx="3.3" ry="3.25" style="fill:#5a387c"/><path d="M235.47,145.58s-19,6.07-13.5,12.69,11.29,1.18,11.29,1.18S236.16,156.73,235.47,145.58Z" style="fill:#cdbcce"/><path d="M236.64,145.42S233.48,164.83,242,163s6.21-9.35,6.21-9.35S247,149.9,236.64,145.42Z" style="fill:#cdbcce"/><path d="M236.35,144.26s18.14,8.24,18.67-.3-7.47-8.41-7.47-8.41S243.55,135.62,236.35,144.26Z" style="fill:#cdbcce"/><path d="M234.95,144.93s-19.2,5.45-18.41-3.07,8.68-7.2,8.68-7.2S229.17,135.31,234.95,144.93Z" style="fill:#cdbcce"/><path d="M235.37,144.14s14.76-13.25,7-17-10.78,3.51-10.78,3.51S230.07,134.26,235.37,144.14Z" style="fill:#cdbcce"/><ellipse cx="235.76" cy="144.95" rx="3.3" ry="3.25" style="fill:#5a387c"/><path d="M240.25,198.43s-19,6.07-13.5,12.69S238,212.31,238,212.31,240.93,209.59,240.25,198.43Z" style="fill:#cdbcce"/><path d="M241.42,198.27s-3.16,19.41,5.33,17.61,6.21-9.35,6.21-9.35S251.82,202.75,241.42,198.27Z" style="fill:#cdbcce"/><path d="M241.13,197.12s18.14,8.24,18.67-.3-7.47-8.41-7.47-8.41S248.32,188.47,241.13,197.12Z" style="fill:#cdbcce"/><path d="M239.72,197.78s-19.2,5.45-18.41-3.07,8.68-7.2,8.68-7.2S233.94,188.16,239.72,197.78Z" style="fill:#cdbcce"/><path d="M240.15,197s14.76-13.25,7-17-10.78,3.51-10.78,3.51S234.84,187.12,240.15,197Z" style="fill:#cdbcce"/><ellipse cx="240.53" cy="197.81" rx="3.3" ry="3.25" style="fill:#5a387c"/><path d="M298.74,200.78s-19,6.07-13.5,12.69,11.29,1.18,11.29,1.18S299.42,211.94,298.74,200.78Z" style="fill:#cdbcce"/><path d="M299.91,200.62s-3.16,19.41,5.33,17.61,6.21-9.35,6.21-9.35S310.31,205.1,299.91,200.62Z" style="fill:#cdbcce"/><path d="M299.62,199.47s18.14,8.24,18.67-.3-7.47-8.41-7.47-8.41S306.81,190.82,299.62,199.47Z" style="fill:#cdbcce"/><path d="M298.21,200.13s-19.2,5.45-18.41-3.07,8.68-7.2,8.68-7.2S292.43,190.51,298.21,200.13Z" style="fill:#cdbcce"/><path d="M298.64,199.34s14.76-13.25,7-17-10.78,3.51-10.78,3.51S293.33,189.46,298.64,199.34Z" style="fill:#cdbcce"/><ellipse cx="299.02" cy="200.16" rx="3.3" ry="3.25" style="fill:#5a387c"/><path d="M317.84,108s-19,6.07-13.5,12.69,11.29,1.18,11.29,1.18S318.52,119.15,317.84,108Z" style="fill:#cdbcce"/><path d="M319,107.83s-3.16,19.41,5.33,17.61,6.21-9.35,6.21-9.35S329.41,112.31,319,107.83Z" style="fill:#cdbcce"/><path d="M318.72,106.68s18.14,8.24,18.67-.3S329.91,98,329.91,98,325.91,98,318.72,106.68Z" style="fill:#cdbcce"/><path d="M317.31,107.34s-19.2,5.45-18.41-3.07,8.68-7.2,8.68-7.2S311.53,97.72,317.31,107.34Z" style="fill:#cdbcce"/><path d="M317.74,106.55s14.76-13.25,7-17S313.92,93,313.92,93,312.43,96.68,317.74,106.55Z" style="fill:#cdbcce"/><ellipse cx="318.12" cy="107.37" rx="3.3" ry="3.25" style="fill:#5a387c"/><path d="M304.71,149.1s-19,6.07-13.5,12.69S302.5,163,302.5,163,305.39,160.26,304.71,149.1Z" style="fill:#cdbcce"/><path d="M305.88,148.94s-3.16,19.41,5.33,17.61,6.21-9.35,6.21-9.35S316.28,153.42,305.88,148.94Z" style="fill:#cdbcce"/><path d="M305.59,147.79s18.14,8.24,18.67-.3-7.47-8.41-7.47-8.41S312.78,139.14,305.59,147.79Z" style="fill:#cdbcce"/><path d="M304.18,148.45s-19.2,5.45-18.41-3.07,8.68-7.2,8.68-7.2S298.4,138.83,304.18,148.45Z" style="fill:#cdbcce"/><path d="M304.61,147.66s14.76-13.25,7-17-10.78,3.51-10.78,3.51S299.3,137.78,304.61,147.66Z" style="fill:#cdbcce"/><ellipse cx="304.99" cy="148.48" rx="3.3" ry="3.25" style="fill:#5a387c"/><path d="M346.49,187.86s-19,6.07-13.5,12.69,11.29,1.18,11.29,1.18S347.17,199,346.49,187.86Z" style="fill:#cdbcce"/><path d="M347.66,187.7s-3.16,19.41,5.33,17.61S359.2,196,359.2,196,358.06,192.18,347.66,187.7Z" style="fill:#cdbcce"/><path d="M347.37,186.55s18.14,8.24,18.67-.3-7.47-8.41-7.47-8.41S354.56,177.9,347.37,186.55Z" style="fill:#cdbcce"/><path d="M346,187.21s-19.2,5.45-18.41-3.07,8.68-7.2,8.68-7.2S340.18,177.59,346,187.21Z" style="fill:#cdbcce"/><path d="M346.39,186.42s14.76-13.25,7-17-10.78,3.51-10.78,3.51S341.08,176.54,346.39,186.42Z" style="fill:#cdbcce"/><ellipse cx="346.77" cy="187.24" rx="3.3" ry="3.25" style="fill:#5a387c"/><path d="M354.84,97.42s-19,6.07-13.5,12.69,11.29,1.18,11.29,1.18S355.53,108.58,354.84,97.42Z" style="fill:#cdbcce"/><path d="M356,97.26s-3.16,19.41,5.33,17.61,6.21-9.35,6.21-9.35S366.42,101.74,356,97.26Z" style="fill:#cdbcce"/><path d="M355.72,96.11s18.14,8.24,18.67-.3-7.47-8.41-7.47-8.41S362.92,87.46,355.72,96.11Z" style="fill:#cdbcce"/><path d="M354.31,96.77s-19.2,5.45-18.41-3.07,8.68-7.2,8.68-7.2S348.53,87.15,354.31,96.77Z" style="fill:#cdbcce"/><path d="M354.74,96s14.76-13.25,7-17-10.78,3.51-10.78,3.51S349.43,86.11,354.74,96Z" style="fill:#cdbcce"/><ellipse cx="355.13" cy="96.8" rx="3.3" ry="3.25" style="fill:#5a387c"/><path d="M385.88,35.17s-19,6.07-13.5,12.69S383.67,49,383.67,49,386.56,46.33,385.88,35.17Z" style="fill:#cdbcce"/><path d="M387,35s-3.16,19.41,5.33,17.61,6.21-9.35,6.21-9.35S397.45,39.49,387,35Z" style="fill:#cdbcce"/><path d="M386.76,33.86s18.14,8.24,18.67-.3S398,25.15,398,25.15,394,25.21,386.76,33.86Z" style="fill:#cdbcce"/><path d="M385.35,34.52s-19.2,5.45-18.41-3.07,8.68-7.2,8.68-7.2S379.57,24.9,385.35,34.52Z" style="fill:#cdbcce"/><path d="M385.78,33.73s14.76-13.25,7-17S382,20.2,382,20.2,380.47,23.85,385.78,33.73Z" style="fill:#cdbcce"/><ellipse cx="386.16" cy="34.55" rx="3.3" ry="3.25" style="fill:#5a387c"/><path d="M412.14,75.11s-19,6.07-13.5,12.69S409.93,89,409.93,89,412.82,86.26,412.14,75.11Z" style="fill:#cdbcce"/><path d="M413.31,74.94s-3.16,19.41,5.33,17.61,6.21-9.35,6.21-9.35S423.71,79.42,413.31,74.94Z" style="fill:#cdbcce"/><path d="M413,73.79s18.14,8.24,18.67-.3-7.47-8.41-7.47-8.41S420.21,65.15,413,73.79Z" style="fill:#cdbcce"/><path d="M411.61,74.45s-19.2,5.45-18.41-3.07,8.68-7.2,8.68-7.2S405.83,64.84,411.61,74.45Z" style="fill:#cdbcce"/><path d="M412,73.67s14.76-13.25,7-17-10.78,3.51-10.78,3.51S406.73,63.79,412,73.67Z" style="fill:#cdbcce"/><ellipse cx="412.42" cy="74.48" rx="3.3" ry="3.25" style="fill:#5a387c"/><path d="M461.08,84.5s-19,6.07-13.5,12.69,11.29,1.18,11.29,1.18S461.76,95.66,461.08,84.5Z" style="fill:#cdbcce"/><path d="M462.25,84.34s-3.16,19.41,5.33,17.61,6.21-9.35,6.21-9.35S472.65,88.82,462.25,84.34Z" style="fill:#cdbcce"/><path d="M462,83.19s18.14,8.24,18.67-.3-7.47-8.41-7.47-8.41S469.16,74.54,462,83.19Z" style="fill:#cdbcce"/><path d="M460.55,83.85s-19.2,5.45-18.41-3.07,8.68-7.2,8.68-7.2S454.77,74.23,460.55,83.85Z" style="fill:#cdbcce"/><path d="M461,83.06s14.76-13.25,7-17-10.78,3.51-10.78,3.51S455.67,73.19,461,83.06Z" style="fill:#cdbcce"/><ellipse cx="461.37" cy="83.88" rx="3.3" ry="3.25" style="fill:#5a387c"/><path d="M511.22,84.5s-19,6.07-13.5,12.69S509,98.38,509,98.38,511.9,95.66,511.22,84.5Z" style="fill:#cdbcce"/><path d="M512.39,84.34s-3.16,19.41,5.33,17.61,6.21-9.35,6.21-9.35S522.79,88.82,512.39,84.34Z" style="fill:#cdbcce"/><path d="M512.1,83.19s18.14,8.24,18.67-.3-7.47-8.41-7.47-8.41S519.29,74.54,512.1,83.19Z" style="fill:#cdbcce"/><path d="M510.69,83.85s-19.2,5.45-18.41-3.07,8.68-7.2,8.68-7.2S504.91,74.23,510.69,83.85Z" style="fill:#cdbcce"/><path d="M511.11,83.06s14.76-13.25,7-17-10.78,3.51-10.78,3.51S505.81,73.19,511.11,83.06Z" style="fill:#cdbcce"/><ellipse cx="511.5" cy="83.88" rx="3.3" ry="3.25" style="fill:#5a387c"/><path d="M377.52,147.93s-19,6.07-13.5,12.69,11.29,1.18,11.29,1.18S378.21,159.08,377.52,147.93Z" style="fill:#cdbcce"/><path d="M378.69,147.77s-3.16,19.41,5.33,17.61,6.21-9.35,6.21-9.35S389.1,152.25,378.69,147.77Z" style="fill:#cdbcce"/><path d="M378.4,146.61s18.14,8.24,18.67-.3-7.47-8.41-7.47-8.41S385.6,138,378.4,146.61Z" style="fill:#cdbcce"/><path d="M377,147.28s-19.2,5.45-18.41-3.07,8.68-7.2,8.68-7.2S371.21,137.66,377,147.28Z" style="fill:#cdbcce"/><path d="M377.42,146.49s14.76-13.25,7-17S373.61,133,373.61,133,372.11,136.61,377.42,146.49Z" style="fill:#cdbcce"/><ellipse cx="377.81" cy="147.3" rx="3.3" ry="3.25" style="fill:#5a387c"/><path d="M291.58,246.59s-19,6.07-13.5,12.69,11.29,1.18,11.29,1.18S292.26,257.74,291.58,246.59Z" style="fill:#cdbcce"/><path d="M292.75,246.43s-3.16,19.41,5.33,17.61,6.21-9.35,6.21-9.35S303.15,250.91,292.75,246.43Z" style="fill:#cdbcce"/><path d="M292.46,245.27s18.14,8.24,18.67-.3-7.47-8.41-7.47-8.41S299.65,236.63,292.46,245.27Z" style="fill:#cdbcce"/><path d="M291,245.94s-19.2,5.45-18.41-3.07,8.68-7.2,8.68-7.2S285.27,236.32,291,245.94Z" style="fill:#cdbcce"/><path d="M291.48,245.15s14.76-13.25,7-17-10.78,3.51-10.78,3.51S286.17,235.27,291.48,245.15Z" style="fill:#cdbcce"/><ellipse cx="291.86" cy="245.96" rx="3.3" ry="3.25" style="fill:#5a387c"/><path d="M336.94,276s-19,6.07-13.5,12.69,11.29,1.18,11.29,1.18S337.62,287.11,336.94,276Z" style="fill:#cdbcce"/><path d="M338.11,275.79s-3.16,19.41,5.33,17.61,6.21-9.35,6.21-9.35S348.51,280.27,338.11,275.79Z" style="fill:#cdbcce"/><path d="M337.82,274.64s18.14,8.24,18.67-.3-7.47-8.41-7.47-8.41S345,266,337.82,274.64Z" style="fill:#cdbcce"/><path d="M336.41,275.3s-19.2,5.45-18.41-3.07,8.68-7.2,8.68-7.2S330.63,265.68,336.41,275.3Z" style="fill:#cdbcce"/><path d="M336.84,274.51s14.76-13.25,7-17S333,261,333,261,331.53,264.64,336.84,274.51Z" style="fill:#cdbcce"/><ellipse cx="337.22" cy="275.33" rx="3.3" ry="3.25" style="fill:#5a387c"/><path d="M301.13,344.08s-19,6.07-13.5,12.69,11.29,1.18,11.29,1.18S301.81,355.23,301.13,344.08Z" style="fill:#cdbcce"/><path d="M302.3,343.91s-3.16,19.41,5.33,17.61,6.21-9.35,6.21-9.35S312.7,348.39,302.3,343.91Z" style="fill:#cdbcce"/><path d="M302,342.76s18.14,8.24,18.67-.3-7.47-8.41-7.47-8.41S309.2,334.12,302,342.76Z" style="fill:#cdbcce"/><path d="M300.6,343.42s-19.2,5.45-18.41-3.07,8.68-7.2,8.68-7.2S294.82,333.81,300.6,343.42Z" style="fill:#cdbcce"/><path d="M301,342.64s14.76-13.25,7-17-10.78,3.51-10.78,3.51S295.72,332.76,301,342.64Z" style="fill:#cdbcce"/><ellipse cx="301.41" cy="343.45" rx="3.3" ry="3.25" style="fill:#5a387c"/><path d="M470.63,157.32s-19,6.07-13.5,12.69,11.29,1.18,11.29,1.18S471.31,168.48,470.63,157.32Z" style="fill:#cdbcce"/><path d="M471.8,157.16s-3.16,19.41,5.33,17.61,6.21-9.35,6.21-9.35S482.2,161.64,471.8,157.16Z" style="fill:#cdbcce"/><path d="M471.51,156s18.14,8.24,18.67-.3-7.47-8.41-7.47-8.41S478.71,147.36,471.51,156Z" style="fill:#cdbcce"/><path d="M470.1,156.67s-19.2,5.45-18.41-3.07,8.68-7.2,8.68-7.2S464.32,147.06,470.1,156.67Z" style="fill:#cdbcce"/><path d="M470.53,155.89s14.76-13.25,7-17-10.78,3.51-10.78,3.51S465.22,146,470.53,155.89Z" style="fill:#cdbcce"/><ellipse cx="470.91" cy="156.7" rx="3.3" ry="3.25" style="fill:#5a387c"/><path d="M569.71,124.44s-19,6.07-13.5,12.69,11.29,1.18,11.29,1.18S570.39,135.59,569.71,124.44Z" style="fill:#cdbcce"/><path d="M570.88,124.28s-3.16,19.41,5.33,17.61,6.21-9.35,6.21-9.35S581.28,128.75,570.88,124.28Z" style="fill:#cdbcce"/><path d="M570.59,123.12s18.14,8.24,18.67-.3-7.47-8.41-7.47-8.41S577.78,114.48,570.59,123.12Z" style="fill:#cdbcce"/><path d="M569.18,123.79s-19.2,5.45-18.41-3.07,8.68-7.2,8.68-7.2S563.4,114.17,569.18,123.79Z" style="fill:#cdbcce"/><path d="M569.6,123s14.76-13.25,7-17-10.78,3.51-10.78,3.51S564.3,113.12,569.6,123Z" style="fill:#cdbcce"/><ellipse cx="569.99" cy="123.81" rx="3.3" ry="3.25" style="fill:#5a387c"/><path d="M560.16,173.77s-19,6.07-13.5,12.69,11.29,1.18,11.29,1.18S560.84,184.92,560.16,173.77Z" style="fill:#cdbcce"/><path d="M561.33,173.61s-3.16,19.41,5.33,17.61,6.21-9.35,6.21-9.35S571.73,178.09,561.33,173.61Z" style="fill:#cdbcce"/><path d="M561,172.45s18.14,8.24,18.67-.3-7.47-8.41-7.47-8.41S568.23,163.81,561,172.45Z" style="fill:#cdbcce"/><path d="M559.63,173.12s-19.2,5.45-18.41-3.07,8.68-7.2,8.68-7.2S553.85,163.5,559.63,173.12Z" style="fill:#cdbcce"/><path d="M560.05,172.33s14.76-13.25,7-17-10.78,3.51-10.78,3.51S554.75,162.45,560.05,172.33Z" style="fill:#cdbcce"/><ellipse cx="560.44" cy="173.14" rx="3.3" ry="3.25" style="fill:#5a387c"/><path d="M508.83,138.53s-19,6.07-13.5,12.69,11.29,1.18,11.29,1.18S509.51,149.69,508.83,138.53Z" style="fill:#cdbcce"/><path d="M510,138.37s-3.16,19.41,5.33,17.61,6.21-9.35,6.21-9.35S520.4,142.85,510,138.37Z" style="fill:#cdbcce"/><path d="M509.71,137.22s18.14,8.24,18.67-.3-7.47-8.41-7.47-8.41S516.9,128.57,509.71,137.22Z" style="fill:#cdbcce"/><path d="M508.3,137.88s-19.2,5.45-18.41-3.07,8.68-7.2,8.68-7.2S502.52,128.26,508.3,137.88Z" style="fill:#cdbcce"/><path d="M508.73,137.09s14.76-13.25,7-17-10.78,3.51-10.78,3.51S503.42,127.21,508.73,137.09Z" style="fill:#cdbcce"/><ellipse cx="509.11" cy="137.91" rx="3.3" ry="3.25" style="fill:#5a387c"/><path d="M499.28,251.29s-19,6.07-13.5,12.69,11.29,1.18,11.29,1.18S500,262.44,499.28,251.29Z" style="fill:#cdbcce"/><path d="M500.45,251.13s-3.16,19.41,5.33,17.61,6.21-9.35,6.21-9.35S510.85,255.6,500.45,251.13Z" style="fill:#cdbcce"/><path d="M500.16,250s18.14,8.24,18.67-.3-7.47-8.41-7.47-8.41S507.35,241.33,500.16,250Z" style="fill:#cdbcce"/><path d="M498.75,250.64s-19.2,5.45-18.41-3.07,8.68-7.2,8.68-7.2S493,241,498.75,250.64Z" style="fill:#cdbcce"/><path d="M499.18,249.85s14.76-13.25,7-17-10.78,3.51-10.78,3.51S493.87,240,499.18,249.85Z" style="fill:#cdbcce"/><ellipse cx="499.56" cy="250.66" rx="3.3" ry="3.25" style="fill:#5a387c"/><path d="M461.08,257.16s-19,6.07-13.5,12.69S458.87,271,458.87,271,461.76,268.31,461.08,257.16Z" style="fill:#cdbcce"/><path d="M462.25,257s-3.16,19.41,5.33,17.61,6.21-9.35,6.21-9.35S472.65,261.48,462.25,257Z" style="fill:#cdbcce"/><path d="M462,255.84s18.14,8.24,18.67-.3-7.47-8.41-7.47-8.41S469.16,247.2,462,255.84Z" style="fill:#cdbcce"/><path d="M460.55,256.51s-19.2,5.45-18.41-3.07,8.68-7.2,8.68-7.2S454.77,246.89,460.55,256.51Z" style="fill:#cdbcce"/><path d="M461,255.72s14.76-13.25,7-17-10.78,3.51-10.78,3.51S455.67,245.84,461,255.72Z" style="fill:#cdbcce"/><ellipse cx="461.37" cy="256.54" rx="3.3" ry="3.25" style="fill:#5a387c"/><path d="M573.29,261.86s-19,6.07-13.5,12.69,11.29,1.18,11.29,1.18S574,273,573.29,261.86Z" style="fill:#cdbcce"/><path d="M574.46,261.7s-3.16,19.41,5.33,17.61,6.21-9.35,6.21-9.35S584.86,266.18,574.46,261.7Z" style="fill:#cdbcce"/><path d="M574.17,260.54s18.14,8.24,18.67-.3-7.47-8.41-7.47-8.41S581.36,251.9,574.17,260.54Z" style="fill:#cdbcce"/><path d="M572.76,261.21s-19.2,5.45-18.41-3.07,8.68-7.2,8.68-7.2S567,251.59,572.76,261.21Z" style="fill:#cdbcce"/><path d="M573.19,260.42s14.76-13.25,7-17-10.78,3.51-10.78,3.51S567.88,250.54,573.19,260.42Z" style="fill:#cdbcce"/><ellipse cx="573.57" cy="261.23" rx="3.3" ry="3.25" style="fill:#5a387c"/><path d="M622.23,238.37s-19,6.07-13.5,12.69S620,252.24,620,252.24,622.91,249.52,622.23,238.37Z" style="fill:#cdbcce"/><path d="M623.4,238.21s-3.16,19.41,5.33,17.61,6.21-9.35,6.21-9.35S633.8,242.68,623.4,238.21Z" style="fill:#cdbcce"/><path d="M623.11,237.05s18.14,8.24,18.67-.3-7.47-8.41-7.47-8.41S630.3,228.41,623.11,237.05Z" style="fill:#cdbcce"/><path d="M621.7,237.72s-19.2,5.45-18.41-3.07,8.68-7.2,8.68-7.2S615.92,228.1,621.7,237.72Z" style="fill:#cdbcce"/><path d="M622.13,236.93s14.76-13.25,7-17-10.78,3.51-10.78,3.51S616.82,227,622.13,236.93Z" style="fill:#cdbcce"/><ellipse cx="622.51" cy="237.74" rx="3.3" ry="3.25" style="fill:#5a387c"/><path d="M613.87,310s-19,6.07-13.5,12.69,11.29,1.18,11.29,1.18S614.55,321.17,613.87,310Z" style="fill:#cdbcce"/><path d="M615,309.85s-3.16,19.41,5.33,17.61,6.21-9.35,6.21-9.35S625.44,314.33,615,309.85Z" style="fill:#cdbcce"/><path d="M614.75,308.7s18.14,8.24,18.67-.3-7.47-8.41-7.47-8.41S621.95,300.05,614.75,308.7Z" style="fill:#cdbcce"/><path d="M613.34,309.36s-19.2,5.45-18.41-3.07,8.68-7.2,8.68-7.2S607.56,299.75,613.34,309.36Z" style="fill:#cdbcce"/><path d="M613.77,308.57s14.76-13.25,7-17S610,295,610,295,608.46,298.7,613.77,308.57Z" style="fill:#cdbcce"/><ellipse cx="614.16" cy="309.39" rx="3.3" ry="3.25" style="fill:#5a387c"/><path d="M588.8,334.68s-19,6.07-13.5,12.69,11.29,1.18,11.29,1.18S589.49,345.83,588.8,334.68Z" style="fill:#cdbcce"/><path d="M590,334.52s-3.16,19.41,5.33,17.61,6.21-9.35,6.21-9.35S600.38,339,590,334.52Z" style="fill:#cdbcce"/><path d="M589.69,333.36s18.14,8.24,18.67-.3-7.47-8.41-7.47-8.41S596.88,324.72,589.69,333.36Z" style="fill:#cdbcce"/><path d="M588.28,334s-19.2,5.45-18.41-3.07,8.68-7.2,8.68-7.2S582.5,324.41,588.28,334Z" style="fill:#cdbcce"/><path d="M588.7,333.24s14.76-13.25,7-17-10.78,3.51-10.78,3.51S583.4,323.36,588.7,333.24Z" style="fill:#cdbcce"/><ellipse cx="589.09" cy="334.05" rx="3.3" ry="3.25" style="fill:#5a387c"/><path d="M660.43,345.25s-19,6.07-13.5,12.69,11.29,1.18,11.29,1.18S661.11,356.4,660.43,345.25Z" style="fill:#cdbcce"/><path d="M661.6,345.09s-3.16,19.41,5.33,17.61,6.21-9.35,6.21-9.35S672,349.57,661.6,345.09Z" style="fill:#cdbcce"/><path d="M661.31,343.93s18.14,8.24,18.67-.3-7.47-8.41-7.47-8.41S668.5,335.29,661.31,343.93Z" style="fill:#cdbcce"/><path d="M659.9,344.6s-19.2,5.45-18.41-3.07,8.68-7.2,8.68-7.2S654.12,335,659.9,344.6Z" style="fill:#cdbcce"/><path d="M660.32,343.81s14.76-13.25,7-17-10.78,3.51-10.78,3.51S655,333.93,660.32,343.81Z" style="fill:#cdbcce"/><ellipse cx="660.71" cy="344.63" rx="3.3" ry="3.25" style="fill:#5a387c"/><path d="M622.23,402.8s-19,6.07-13.5,12.69S620,416.68,620,416.68,622.91,414,622.23,402.8Z" style="fill:#cdbcce"/><path d="M623.4,402.64s-3.16,19.41,5.33,17.61,6.21-9.35,6.21-9.35S633.8,407.12,623.4,402.64Z" style="fill:#cdbcce"/><path d="M623.11,401.49s18.14,8.24,18.67-.3-7.47-8.41-7.47-8.41S630.3,392.84,623.11,401.49Z" style="fill:#cdbcce"/><path d="M621.7,402.15s-19.2,5.45-18.41-3.07,8.68-7.2,8.68-7.2S615.92,392.53,621.7,402.15Z" style="fill:#cdbcce"/><path d="M622.13,401.36s14.76-13.25,7-17-10.78,3.51-10.78,3.51S616.82,391.49,622.13,401.36Z" style="fill:#cdbcce"/><ellipse cx="622.51" cy="402.18" rx="3.3" ry="3.25" style="fill:#5a387c"/><path d="M556.58,399.28s-19,6.07-13.5,12.69,11.29,1.18,11.29,1.18S557.26,410.43,556.58,399.28Z" style="fill:#cdbcce"/><path d="M557.75,399.12s-3.16,19.41,5.33,17.61,6.21-9.35,6.21-9.35S568.15,403.6,557.75,399.12Z" style="fill:#cdbcce"/><path d="M557.46,398s18.14,8.24,18.67-.3-7.47-8.41-7.47-8.41S564.65,389.32,557.46,398Z" style="fill:#cdbcce"/><path d="M556,398.63s-19.2,5.45-18.41-3.07,8.68-7.2,8.68-7.2S550.27,389,556,398.63Z" style="fill:#cdbcce"/><path d="M556.47,397.84s14.76-13.25,7-17-10.78,3.51-10.78,3.51S551.17,388,556.47,397.84Z" style="fill:#cdbcce"/><ellipse cx="556.86" cy="398.65" rx="3.3" ry="3.25" style="fill:#5a387c"/><path d="M537.48,293.57s-19,6.07-13.5,12.69,11.29,1.18,11.29,1.18S538.16,304.72,537.48,293.57Z" style="fill:#cdbcce"/><path d="M538.65,293.41S535.48,312.82,544,311s6.21-9.35,6.21-9.35S549,297.89,538.65,293.41Z" style="fill:#cdbcce"/><path d="M538.36,292.26S556.5,300.5,557,292s-7.47-8.41-7.47-8.41S545.55,283.61,538.36,292.26Z" style="fill:#cdbcce"/><path d="M536.95,292.92s-19.2,5.45-18.41-3.07,8.68-7.2,8.68-7.2S531.17,283.3,536.95,292.92Z" style="fill:#cdbcce"/><path d="M537.37,292.13s14.76-13.25,7-17-10.78,3.51-10.78,3.51S532.07,282.25,537.37,292.13Z" style="fill:#cdbcce"/><ellipse cx="537.76" cy="292.95" rx="3.3" ry="3.25" style="fill:#5a387c"/><path d="M492.12,310s-19,6.07-13.5,12.69,11.29,1.18,11.29,1.18S492.8,321.17,492.12,310Z" style="fill:#cdbcce"/><path d="M493.29,309.85s-3.16,19.41,5.33,17.61,6.21-9.35,6.21-9.35S503.69,314.33,493.29,309.85Z" style="fill:#cdbcce"/><path d="M493,308.7s18.14,8.24,18.67-.3-7.47-8.41-7.47-8.41S500.19,300.05,493,308.7Z" style="fill:#cdbcce"/><path d="M491.59,309.36s-19.2,5.45-18.41-3.07,8.68-7.2,8.68-7.2S485.81,299.75,491.59,309.36Z" style="fill:#cdbcce"/><path d="M492,308.57s14.76-13.25,7-17S488.2,295,488.2,295,486.71,298.7,492,308.57Z" style="fill:#cdbcce"/><ellipse cx="492.4" cy="309.39" rx="3.3" ry="3.25" style="fill:#5a387c"/><path d="M656.84,298.27s-19,6.07-13.5,12.69,11.29,1.18,11.29,1.18S657.53,309.42,656.84,298.27Z" style="fill:#cdbcce"/><path d="M658,298.11s-3.16,19.41,5.33,17.61,6.21-9.35,6.21-9.35S668.42,302.59,658,298.11Z" style="fill:#cdbcce"/><path d="M657.73,297s18.14,8.24,18.67-.3-7.47-8.41-7.47-8.41S664.92,288.31,657.73,297Z" style="fill:#cdbcce"/><path d="M656.32,297.62s-19.2,5.45-18.41-3.07,8.68-7.2,8.68-7.2S650.54,288,656.32,297.62Z" style="fill:#cdbcce"/><path d="M656.74,296.83s14.76-13.25,7-17-10.78,3.51-10.78,3.51S651.44,287,656.74,296.83Z" style="fill:#cdbcce"/><ellipse cx="657.13" cy="297.64" rx="3.3" ry="3.25" style="fill:#5a387c"/><path d="M618.65,360.52s-19,6.07-13.5,12.69,11.29,1.18,11.29,1.18S619.33,371.67,618.65,360.52Z" style="fill:#cdbcce"/><path d="M619.82,360.36s-3.16,19.41,5.33,17.61,6.21-9.35,6.21-9.35S630.22,364.84,619.82,360.36Z" style="fill:#cdbcce"/><path d="M619.53,359.2s18.14,8.24,18.67-.3-7.47-8.41-7.47-8.41S626.72,350.56,619.53,359.2Z" style="fill:#cdbcce"/><path d="M618.12,359.87s-19.2,5.45-18.41-3.07,8.68-7.2,8.68-7.2S612.34,350.25,618.12,359.87Z" style="fill:#cdbcce"/><path d="M618.55,359.08s14.76-13.25,7-17-10.78,3.51-10.78,3.51S613.24,349.2,618.55,359.08Z" style="fill:#cdbcce"/><ellipse cx="618.93" cy="359.89" rx="3.3" ry="3.25" style="fill:#5a387c"/><path d="M442,293.57s-19,6.07-13.5,12.69,11.29,1.18,11.29,1.18S442.66,304.72,442,293.57Z" style="fill:#cdbcce"/><path d="M443.15,293.41S440,312.82,448.49,311s6.21-9.35,6.21-9.35S453.55,297.89,443.15,293.41Z" style="fill:#cdbcce"/><path d="M442.86,292.26s18.14,8.24,18.67-.3-7.47-8.41-7.47-8.41S450.06,283.61,442.86,292.26Z" style="fill:#cdbcce"/><path d="M441.45,292.92s-19.2,5.45-18.41-3.07,8.68-7.2,8.68-7.2S435.67,283.3,441.45,292.92Z" style="fill:#cdbcce"/><path d="M441.88,292.13s14.76-13.25,7-17-10.78,3.51-10.78,3.51S436.57,282.25,441.88,292.13Z" style="fill:#cdbcce"/><ellipse cx="442.27" cy="292.95" rx="3.3" ry="3.25" style="fill:#5a387c"/><path d="M276,307.65s-19.34,5-14.24,11.89,11.2,1.83,11.2,1.83S276,318.82,276,307.65Z" style="fill:#cdbcce"/><path d="M277.18,307.55s-4.32,19.2,4.27,17.88,6.76-9,6.76-9S287.3,312.62,277.18,307.55Z" style="fill:#cdbcce"/><path d="M277,306.38s17.62,9.28,18.65.78-7-8.83-7-8.83S284.65,298.17,277,306.38Z" style="fill:#cdbcce"/><path d="M275.51,307s-19.49,4.33-18.19-4.13,9.1-6.69,9.1-6.69S270.31,297,275.51,307Z" style="fill:#cdbcce"/><path d="M276,306.2s15.52-12.38,8-16.61-11,2.89-11,2.89S271.28,296,276,306.2Z" style="fill:#cdbcce"/><path d="M279.62,307.23a3.3,3.3,0,1,1-3.1-3.43A3.28,3.28,0,0,1,279.62,307.23Z" style="fill:#5a387c"/><path d="M106.56,214.88s-19,6.07-13.5,12.69,11.29,1.18,11.29,1.18S107.24,226,106.56,214.88Z" style="fill:#cdbcce"/><path d="M107.73,214.71s-3.16,19.41,5.33,17.61,6.21-9.35,6.21-9.35S118.13,219.19,107.73,214.71Z" style="fill:#cdbcce"/><path d="M107.44,213.56s18.14,8.24,18.67-.3-7.47-8.41-7.47-8.41S114.63,204.92,107.44,213.56Z" style="fill:#cdbcce"/><path d="M106,214.22s-19.2,5.45-18.41-3.07,8.68-7.2,8.68-7.2S100.25,204.61,106,214.22Z" style="fill:#cdbcce"/><path d="M106.45,213.44s14.76-13.25,7-17-10.78,3.51-10.78,3.51S101.15,203.56,106.45,213.44Z" style="fill:#cdbcce"/><ellipse cx="106.84" cy="214.25" rx="3.3" ry="3.25" style="fill:#5a387c"/><path d="M203.24,178.47s-19,6.07-13.5,12.69S201,192.34,201,192.34,203.93,189.62,203.24,178.47Z" style="fill:#cdbcce"/><path d="M204.41,178.3s-3.16,19.41,5.33,17.61,6.21-9.35,6.21-9.35S214.82,182.78,204.41,178.3Z" style="fill:#cdbcce"/><path d="M204.13,177.15s18.14,8.24,18.67-.3-7.47-8.41-7.47-8.41S211.32,168.51,204.13,177.15Z" style="fill:#cdbcce"/><path d="M202.72,177.81s-19.2,5.45-18.41-3.07,8.68-7.2,8.68-7.2S196.94,168.2,202.72,177.81Z" style="fill:#cdbcce"/><path d="M203.14,177s14.76-13.25,7-17-10.78,3.51-10.78,3.51S197.84,167.15,203.14,177Z" style="fill:#cdbcce"/><ellipse cx="203.53" cy="177.84" rx="3.3" ry="3.25" style="fill:#5a387c"/><path d="M74.33,240.72s-19,6.07-13.5,12.69,11.29,1.18,11.29,1.18S75,251.87,74.33,240.72Z" style="fill:#cdbcce"/><path d="M75.5,240.55S72.33,260,80.83,258.16,87,248.81,87,248.81,85.9,245,75.5,240.55Z" style="fill:#cdbcce"/><path d="M75.21,239.4s18.14,8.24,18.67-.3-7.47-8.41-7.47-8.41S82.4,230.76,75.21,239.4Z" style="fill:#cdbcce"/><path d="M73.8,240.06S54.6,245.51,55.39,237s8.68-7.2,8.68-7.2S68,230.45,73.8,240.06Z" style="fill:#cdbcce"/><path d="M74.22,239.28s14.76-13.25,7-17-10.78,3.51-10.78,3.51S68.92,229.4,74.22,239.28Z" style="fill:#cdbcce"/><ellipse cx="74.61" cy="240.09" rx="3.3" ry="3.25" style="fill:#5a387c"/><line x1="145.32" y1="288.52" x2="168.31" y2="223.16" style="fill:#2d2a20;stroke:#2d2a20;stroke-miterlimit:10;stroke-width:3.55221855850232px"/><path d="M167.43,227.8s-19,6.07-13.5,12.69,11.29,1.18,11.29,1.18S168.12,239,167.43,227.8Z" style="fill:#cdbcce"/><path d="M168.6,227.63s-3.16,19.41,5.33,17.61,6.21-9.35,6.21-9.35S179,232.11,168.6,227.63Z" style="fill:#cdbcce"/><path d="M168.31,226.48s18.14,8.24,18.67-.3-7.47-8.41-7.47-8.41S175.51,217.84,168.31,226.48Z" style="fill:#cdbcce"/><path d="M166.91,227.14s-19.2,5.45-18.41-3.07,8.68-7.2,8.68-7.2S161.12,217.53,166.91,227.14Z" style="fill:#cdbcce"/><path d="M167.33,226.36s14.76-13.25,7-17-10.78,3.51-10.78,3.51S162,216.48,167.33,226.36Z" style="fill:#cdbcce"/><ellipse cx="167.72" cy="227.17" rx="3.3" ry="3.25" style="fill:#5a387c"/><path d="M155.13,260.25s-20.24-43-35.76-37.09" style="fill:none;stroke:#2d2a20;stroke-miterlimit:10;stroke-width:3.55221855850232px"/></g></g></svg>